<?xml version="1.0" encoding="utf-8" standalone="no"?>
<!DOCTYPE svg PUBLIC "-//W3C//DTD SVG 1.1//EN"
  "http://www.w3.org/Graphics/SVG/1.1/DTD/svg11.dtd">
<svg xmlns:xlink="http://www.w3.org/1999/xlink" width="720pt" height="720pt" viewBox="0 0 720 720" xmlns="http://www.w3.org/2000/svg" version="1.1">
 <metadata>
  <rdf:RDF xmlns:dc="http://purl.org/dc/elements/1.1/" xmlns:cc="http://creativecommons.org/ns#" xmlns:rdf="http://www.w3.org/1999/02/22-rdf-syntax-ns#">
   <cc:Work>
    <dc:type rdf:resource="http://purl.org/dc/dcmitype/StillImage"/>
    <dc:date>2024-05-21T21:09:35.947650</dc:date>
    <dc:format>image/svg+xml</dc:format>
    <dc:creator>
     <cc:Agent>
      <dc:title>Matplotlib v3.5.0, https://matplotlib.org/</dc:title>
     </cc:Agent>
    </dc:creator>
   </cc:Work>
  </rdf:RDF>
 </metadata>
 <defs>
  <style type="text/css">*{stroke-linejoin: round; stroke-linecap: butt}</style>
 </defs>
 <g id="figure_1">
  <g id="patch_1">
   <path d="M 0 720 
L 720 720 
L 720 0 
L 0 0 
z
" style="fill: #ffffff"/>
  </g>
  <g id="axes_1">
   <g id="patch_2">
    <path d="M 90 640.8 
L 648 640.8 
L 648 86.4 
L 90 86.4 
z
" style="fill: #ffffff"/>
   </g>
   <g id="matplotlib.axis_1">
    <g id="xtick_1">
     <g id="line2d_1">
      <defs>
       <path id="mf9a29c1260" d="M 0 0 
L 0 10 
" style="stroke: #000000"/>
      </defs>
      <g>
       <use xlink:href="#mf9a29c1260" x="115.363636" y="640.8" style="stroke: #000000"/>
      </g>
     </g>
     <g id="text_1">
      <!-- 0 -->
      <g transform="translate(109.637386 667.977188)scale(0.18 -0.18)">
       <defs>
        <path id="DejaVuSans-30" d="M 2034 4250 
Q 1547 4250 1301 3770 
Q 1056 3291 1056 2328 
Q 1056 1369 1301 889 
Q 1547 409 2034 409 
Q 2525 409 2770 889 
Q 3016 1369 3016 2328 
Q 3016 3291 2770 3770 
Q 2525 4250 2034 4250 
z
M 2034 4750 
Q 2819 4750 3233 4129 
Q 3647 3509 3647 2328 
Q 3647 1150 3233 529 
Q 2819 -91 2034 -91 
Q 1250 -91 836 529 
Q 422 1150 422 2328 
Q 422 3509 836 4129 
Q 1250 4750 2034 4750 
z
" transform="scale(0.015625)"/>
       </defs>
       <use xlink:href="#DejaVuSans-30"/>
      </g>
     </g>
    </g>
    <g id="xtick_2">
     <g id="line2d_2">
      <g>
       <use xlink:href="#mf9a29c1260" x="217.842975" y="640.8" style="stroke: #000000"/>
      </g>
     </g>
     <g id="text_2">
      <!-- 20 -->
      <g transform="translate(206.390475 667.977188)scale(0.18 -0.18)">
       <defs>
        <path id="DejaVuSans-32" d="M 1228 531 
L 3431 531 
L 3431 0 
L 469 0 
L 469 531 
Q 828 903 1448 1529 
Q 2069 2156 2228 2338 
Q 2531 2678 2651 2914 
Q 2772 3150 2772 3378 
Q 2772 3750 2511 3984 
Q 2250 4219 1831 4219 
Q 1534 4219 1204 4116 
Q 875 4013 500 3803 
L 500 4441 
Q 881 4594 1212 4672 
Q 1544 4750 1819 4750 
Q 2544 4750 2975 4387 
Q 3406 4025 3406 3419 
Q 3406 3131 3298 2873 
Q 3191 2616 2906 2266 
Q 2828 2175 2409 1742 
Q 1991 1309 1228 531 
z
" transform="scale(0.015625)"/>
       </defs>
       <use xlink:href="#DejaVuSans-32"/>
       <use xlink:href="#DejaVuSans-30" x="63.623047"/>
      </g>
     </g>
    </g>
    <g id="xtick_3">
     <g id="line2d_3">
      <g>
       <use xlink:href="#mf9a29c1260" x="320.322314" y="640.8" style="stroke: #000000"/>
      </g>
     </g>
     <g id="text_3">
      <!-- 40 -->
      <g transform="translate(308.869814 667.977188)scale(0.18 -0.18)">
       <defs>
        <path id="DejaVuSans-34" d="M 2419 4116 
L 825 1625 
L 2419 1625 
L 2419 4116 
z
M 2253 4666 
L 3047 4666 
L 3047 1625 
L 3713 1625 
L 3713 1100 
L 3047 1100 
L 3047 0 
L 2419 0 
L 2419 1100 
L 313 1100 
L 313 1709 
L 2253 4666 
z
" transform="scale(0.015625)"/>
       </defs>
       <use xlink:href="#DejaVuSans-34"/>
       <use xlink:href="#DejaVuSans-30" x="63.623047"/>
      </g>
     </g>
    </g>
    <g id="xtick_4">
     <g id="line2d_4">
      <g>
       <use xlink:href="#mf9a29c1260" x="422.801653" y="640.8" style="stroke: #000000"/>
      </g>
     </g>
     <g id="text_4">
      <!-- 60 -->
      <g transform="translate(411.349153 667.977188)scale(0.18 -0.18)">
       <defs>
        <path id="DejaVuSans-36" d="M 2113 2584 
Q 1688 2584 1439 2293 
Q 1191 2003 1191 1497 
Q 1191 994 1439 701 
Q 1688 409 2113 409 
Q 2538 409 2786 701 
Q 3034 994 3034 1497 
Q 3034 2003 2786 2293 
Q 2538 2584 2113 2584 
z
M 3366 4563 
L 3366 3988 
Q 3128 4100 2886 4159 
Q 2644 4219 2406 4219 
Q 1781 4219 1451 3797 
Q 1122 3375 1075 2522 
Q 1259 2794 1537 2939 
Q 1816 3084 2150 3084 
Q 2853 3084 3261 2657 
Q 3669 2231 3669 1497 
Q 3669 778 3244 343 
Q 2819 -91 2113 -91 
Q 1303 -91 875 529 
Q 447 1150 447 2328 
Q 447 3434 972 4092 
Q 1497 4750 2381 4750 
Q 2619 4750 2861 4703 
Q 3103 4656 3366 4563 
z
" transform="scale(0.015625)"/>
       </defs>
       <use xlink:href="#DejaVuSans-36"/>
       <use xlink:href="#DejaVuSans-30" x="63.623047"/>
      </g>
     </g>
    </g>
    <g id="xtick_5">
     <g id="line2d_5">
      <g>
       <use xlink:href="#mf9a29c1260" x="525.280992" y="640.8" style="stroke: #000000"/>
      </g>
     </g>
     <g id="text_5">
      <!-- 80 -->
      <g transform="translate(513.828492 667.977188)scale(0.18 -0.18)">
       <defs>
        <path id="DejaVuSans-38" d="M 2034 2216 
Q 1584 2216 1326 1975 
Q 1069 1734 1069 1313 
Q 1069 891 1326 650 
Q 1584 409 2034 409 
Q 2484 409 2743 651 
Q 3003 894 3003 1313 
Q 3003 1734 2745 1975 
Q 2488 2216 2034 2216 
z
M 1403 2484 
Q 997 2584 770 2862 
Q 544 3141 544 3541 
Q 544 4100 942 4425 
Q 1341 4750 2034 4750 
Q 2731 4750 3128 4425 
Q 3525 4100 3525 3541 
Q 3525 3141 3298 2862 
Q 3072 2584 2669 2484 
Q 3125 2378 3379 2068 
Q 3634 1759 3634 1313 
Q 3634 634 3220 271 
Q 2806 -91 2034 -91 
Q 1263 -91 848 271 
Q 434 634 434 1313 
Q 434 1759 690 2068 
Q 947 2378 1403 2484 
z
M 1172 3481 
Q 1172 3119 1398 2916 
Q 1625 2713 2034 2713 
Q 2441 2713 2670 2916 
Q 2900 3119 2900 3481 
Q 2900 3844 2670 4047 
Q 2441 4250 2034 4250 
Q 1625 4250 1398 4047 
Q 1172 3844 1172 3481 
z
" transform="scale(0.015625)"/>
       </defs>
       <use xlink:href="#DejaVuSans-38"/>
       <use xlink:href="#DejaVuSans-30" x="63.623047"/>
      </g>
     </g>
    </g>
    <g id="xtick_6">
     <g id="line2d_6">
      <g>
       <use xlink:href="#mf9a29c1260" x="627.760331" y="640.8" style="stroke: #000000"/>
      </g>
     </g>
     <g id="text_6">
      <!-- 100 -->
      <g transform="translate(610.581581 667.977188)scale(0.18 -0.18)">
       <defs>
        <path id="DejaVuSans-31" d="M 794 531 
L 1825 531 
L 1825 4091 
L 703 3866 
L 703 4441 
L 1819 4666 
L 2450 4666 
L 2450 531 
L 3481 531 
L 3481 0 
L 794 0 
L 794 531 
z
" transform="scale(0.015625)"/>
       </defs>
       <use xlink:href="#DejaVuSans-31"/>
       <use xlink:href="#DejaVuSans-30" x="63.623047"/>
       <use xlink:href="#DejaVuSans-30" x="127.246094"/>
      </g>
     </g>
    </g>
   </g>
   <g id="matplotlib.axis_2">
    <g id="ytick_1">
     <g id="line2d_7">
      <defs>
       <path id="m333ec740da" d="M 0 0 
L -10 0 
" style="stroke: #000000"/>
      </defs>
      <g>
       <use xlink:href="#m333ec740da" x="90" y="640.8" style="stroke: #000000"/>
      </g>
     </g>
     <g id="text_7">
      <!-- $\mathdefault{10^{-1}}$ -->
      <g transform="translate(34.2 647.638594)scale(0.18 -0.18)">
       <defs>
        <path id="DejaVuSans-2212" d="M 678 2272 
L 4684 2272 
L 4684 1741 
L 678 1741 
L 678 2272 
z
" transform="scale(0.015625)"/>
       </defs>
       <use xlink:href="#DejaVuSans-31" transform="translate(0 0.684375)"/>
       <use xlink:href="#DejaVuSans-30" transform="translate(63.623047 0.684375)"/>
       <use xlink:href="#DejaVuSans-2212" transform="translate(128.203125 38.965625)scale(0.7)"/>
       <use xlink:href="#DejaVuSans-31" transform="translate(186.855469 38.965625)scale(0.7)"/>
      </g>
     </g>
    </g>
    <g id="ytick_2">
     <g id="line2d_8">
      <g>
       <use xlink:href="#m333ec740da" x="90" y="86.4" style="stroke: #000000"/>
      </g>
     </g>
     <g id="text_8">
      <!-- $\mathdefault{10^{0}}$ -->
      <g transform="translate(44.82 93.238594)scale(0.18 -0.18)">
       <use xlink:href="#DejaVuSans-31" transform="translate(0 0.765625)"/>
       <use xlink:href="#DejaVuSans-30" transform="translate(63.623047 0.765625)"/>
       <use xlink:href="#DejaVuSans-30" transform="translate(128.203125 39.046875)scale(0.7)"/>
      </g>
     </g>
    </g>
    <g id="ytick_3">
     <g id="line2d_9">
      <defs>
       <path id="m6bea3b88e4" d="M 0 0 
L -5 0 
" style="stroke: #000000"/>
      </defs>
      <g>
       <use xlink:href="#m6bea3b88e4" x="90" y="473.90897" style="stroke: #000000"/>
      </g>
     </g>
     <g id="text_9">
      <!-- $\mathdefault{2\times10^{-1}}$ -->
      <g transform="translate(39.5 477.708189)scale(0.1 -0.1)">
       <defs>
        <path id="DejaVuSans-d7" d="M 4488 3438 
L 3059 2003 
L 4488 575 
L 4116 197 
L 2681 1631 
L 1247 197 
L 878 575 
L 2303 2003 
L 878 3438 
L 1247 3816 
L 2681 2381 
L 4116 3816 
L 4488 3438 
z
" transform="scale(0.015625)"/>
       </defs>
       <use xlink:href="#DejaVuSans-32" transform="translate(0 0.684375)"/>
       <use xlink:href="#DejaVuSans-d7" transform="translate(83.105469 0.684375)"/>
       <use xlink:href="#DejaVuSans-31" transform="translate(186.376953 0.684375)"/>
       <use xlink:href="#DejaVuSans-30" transform="translate(250 0.684375)"/>
       <use xlink:href="#DejaVuSans-2212" transform="translate(314.580078 38.965625)scale(0.7)"/>
       <use xlink:href="#DejaVuSans-31" transform="translate(373.232422 38.965625)scale(0.7)"/>
      </g>
     </g>
    </g>
    <g id="ytick_4">
     <g id="line2d_10">
      <g>
       <use xlink:href="#m6bea3b88e4" x="90" y="376.283976" style="stroke: #000000"/>
      </g>
     </g>
     <g id="text_10">
      <!-- $\mathdefault{3\times10^{-1}}$ -->
      <g transform="translate(39.5 380.083195)scale(0.1 -0.1)">
       <defs>
        <path id="DejaVuSans-33" d="M 2597 2516 
Q 3050 2419 3304 2112 
Q 3559 1806 3559 1356 
Q 3559 666 3084 287 
Q 2609 -91 1734 -91 
Q 1441 -91 1130 -33 
Q 819 25 488 141 
L 488 750 
Q 750 597 1062 519 
Q 1375 441 1716 441 
Q 2309 441 2620 675 
Q 2931 909 2931 1356 
Q 2931 1769 2642 2001 
Q 2353 2234 1838 2234 
L 1294 2234 
L 1294 2753 
L 1863 2753 
Q 2328 2753 2575 2939 
Q 2822 3125 2822 3475 
Q 2822 3834 2567 4026 
Q 2313 4219 1838 4219 
Q 1578 4219 1281 4162 
Q 984 4106 628 3988 
L 628 4550 
Q 988 4650 1302 4700 
Q 1616 4750 1894 4750 
Q 2613 4750 3031 4423 
Q 3450 4097 3450 3541 
Q 3450 3153 3228 2886 
Q 3006 2619 2597 2516 
z
" transform="scale(0.015625)"/>
       </defs>
       <use xlink:href="#DejaVuSans-33" transform="translate(0 0.684375)"/>
       <use xlink:href="#DejaVuSans-d7" transform="translate(83.105469 0.684375)"/>
       <use xlink:href="#DejaVuSans-31" transform="translate(186.376953 0.684375)"/>
       <use xlink:href="#DejaVuSans-30" transform="translate(250 0.684375)"/>
       <use xlink:href="#DejaVuSans-2212" transform="translate(314.580078 38.965625)scale(0.7)"/>
       <use xlink:href="#DejaVuSans-31" transform="translate(373.232422 38.965625)scale(0.7)"/>
      </g>
     </g>
    </g>
    <g id="ytick_5">
     <g id="line2d_11">
      <g>
       <use xlink:href="#m6bea3b88e4" x="90" y="307.017941" style="stroke: #000000"/>
      </g>
     </g>
     <g id="text_11">
      <!-- $\mathdefault{4\times10^{-1}}$ -->
      <g transform="translate(39.5 310.81716)scale(0.1 -0.1)">
       <use xlink:href="#DejaVuSans-34" transform="translate(0 0.684375)"/>
       <use xlink:href="#DejaVuSans-d7" transform="translate(83.105469 0.684375)"/>
       <use xlink:href="#DejaVuSans-31" transform="translate(186.376953 0.684375)"/>
       <use xlink:href="#DejaVuSans-30" transform="translate(250 0.684375)"/>
       <use xlink:href="#DejaVuSans-2212" transform="translate(314.580078 38.965625)scale(0.7)"/>
       <use xlink:href="#DejaVuSans-31" transform="translate(373.232422 38.965625)scale(0.7)"/>
      </g>
     </g>
    </g>
    <g id="ytick_6">
     <g id="line2d_12">
      <g>
       <use xlink:href="#m6bea3b88e4" x="90" y="253.29103" style="stroke: #000000"/>
      </g>
     </g>
    </g>
    <g id="ytick_7">
     <g id="line2d_13">
      <g>
       <use xlink:href="#m6bea3b88e4" x="90" y="209.392947" style="stroke: #000000"/>
      </g>
     </g>
     <g id="text_12">
      <!-- $\mathdefault{6\times10^{-1}}$ -->
      <g transform="translate(39.5 213.192166)scale(0.1 -0.1)">
       <use xlink:href="#DejaVuSans-36" transform="translate(0 0.684375)"/>
       <use xlink:href="#DejaVuSans-d7" transform="translate(83.105469 0.684375)"/>
       <use xlink:href="#DejaVuSans-31" transform="translate(186.376953 0.684375)"/>
       <use xlink:href="#DejaVuSans-30" transform="translate(250 0.684375)"/>
       <use xlink:href="#DejaVuSans-2212" transform="translate(314.580078 38.965625)scale(0.7)"/>
       <use xlink:href="#DejaVuSans-31" transform="translate(373.232422 38.965625)scale(0.7)"/>
      </g>
     </g>
    </g>
    <g id="ytick_8">
     <g id="line2d_14">
      <g>
       <use xlink:href="#m6bea3b88e4" x="90" y="172.277647" style="stroke: #000000"/>
      </g>
     </g>
    </g>
    <g id="ytick_9">
     <g id="line2d_15">
      <g>
       <use xlink:href="#m6bea3b88e4" x="90" y="140.126911" style="stroke: #000000"/>
      </g>
     </g>
    </g>
    <g id="ytick_10">
     <g id="line2d_16">
      <g>
       <use xlink:href="#m6bea3b88e4" x="90" y="111.767953" style="stroke: #000000"/>
      </g>
     </g>
    </g>
   </g>
   <g id="line2d_17">
    <path d="M 115.363636 86.4 
L 120.487603 86.4 
L 125.61157 91.986958 
L 130.735537 95.72529 
L 135.859504 95.738001 
L 140.983471 95.738016 
L 146.107438 98.653782 
L 151.231405 100.015717 
L 156.355372 103.03609 
L 161.479339 103.045348 
L 166.603306 103.736399 
L 171.727273 106.543047 
L 176.85124 104.815482 
L 181.975207 106.577455 
L 187.099174 105.630712 
L 192.22314 107.272066 
L 197.347107 109.269921 
L 202.471074 109.025578 
L 207.595041 109.102824 
L 212.719008 110.622498 
L 217.842975 111.186848 
L 222.966942 111.796663 
L 228.090909 113.281398 
L 233.214876 112.408682 
L 238.338843 114.045337 
L 243.46281 114.185392 
L 248.586777 115.23236 
L 253.710744 115.552729 
L 258.834711 115.424326 
L 263.958678 115.021506 
L 269.082645 114.905599 
L 274.206612 115.634091 
L 279.330579 116.340708 
L 284.454545 115.237924 
L 289.578512 116.370499 
L 294.702479 115.843828 
L 299.826446 116.676649 
L 304.950413 116.019159 
L 310.07438 117.52701 
L 315.198347 118.060785 
L 320.322314 117.81745 
L 325.446281 118.128132 
L 330.570248 117.685023 
L 335.694215 119.69772 
L 340.818182 119.203836 
L 345.942149 119.461171 
L 351.066116 119.878553 
L 356.190083 119.880334 
L 361.31405 119.784715 
L 366.438017 119.275485 
L 371.561983 120.369196 
L 376.68595 120.639427 
L 381.809917 120.816317 
L 386.933884 120.650099 
L 392.057851 121.082575 
L 397.181818 121.92006 
L 402.305785 121.997762 
L 407.429752 122.195534 
L 412.553719 121.54318 
L 417.677686 121.078912 
L 422.801653 121.670469 
L 427.92562 122.013852 
L 433.049587 121.822214 
L 438.173554 122.910613 
L 443.297521 123.005493 
L 448.421488 122.757179 
L 453.545455 122.976557 
L 458.669421 123.278283 
L 463.793388 123.076444 
L 468.917355 122.595253 
L 474.041322 123.040114 
L 479.165289 124.701563 
L 484.289256 124.072716 
L 489.413223 124.20407 
L 494.53719 123.837013 
L 499.661157 124.031151 
L 504.785124 124.505422 
L 509.909091 123.692153 
L 515.033058 124.936751 
L 520.157025 124.698854 
L 525.280992 124.668941 
L 530.404959 125.032484 
L 535.528926 125.15005 
L 540.652893 125.23973 
L 545.77686 124.967355 
L 550.900826 125.632292 
L 556.024793 125.420033 
L 561.14876 125.73736 
L 566.272727 125.206731 
L 571.396694 125.605015 
L 576.520661 125.824469 
L 581.644628 126.247738 
L 586.768595 126.336625 
L 591.892562 126.149862 
L 597.016529 126.445881 
L 602.140496 126.424748 
L 607.264463 126.135102 
L 612.38843 125.683443 
L 617.512397 127.021278 
L 622.636364 126.347552 
" clip-path="url(#paff085a6a0)" style="fill: none; stroke: #1f77b4; stroke-width: 1.5; stroke-linecap: square"/>
   </g>
   <g id="line2d_18">
    <path d="M 115.363636 86.4 
L 120.487603 86.4 
L 125.61157 200.416547 
L 130.735537 221.299763 
L 135.859504 228.805686 
L 140.983471 233.378463 
L 146.107438 236.44776 
L 151.231405 239.306776 
L 156.355372 241.785352 
L 161.479339 243.490207 
L 166.603306 245.768213 
L 171.727273 247.119348 
L 176.85124 249.220534 
L 181.975207 250.643978 
L 187.099174 251.251634 
L 192.22314 253.445728 
L 197.347107 254.836781 
L 202.471074 255.832021 
L 207.595041 256.749267 
L 212.719008 258.035515 
L 217.842975 259.002545 
L 222.966942 259.028925 
L 228.090909 260.132882 
L 233.214876 261.130732 
L 238.338843 262.175482 
L 243.46281 262.843702 
L 248.586777 263.322988 
L 253.710744 263.795795 
L 258.834711 264.440378 
L 263.958678 264.960378 
L 269.082645 265.831181 
L 274.206612 266.021854 
L 279.330579 267.045694 
L 284.454545 266.923695 
L 289.578512 267.023146 
L 294.702479 267.843257 
L 299.826446 267.913975 
L 304.950413 268.80205 
L 310.07438 269.250524 
L 315.198347 269.580584 
L 320.322314 269.793739 
L 325.446281 270.971475 
L 330.570248 271.015775 
L 335.694215 271.395945 
L 340.818182 271.965304 
L 345.942149 272.511576 
L 351.066116 271.67917 
L 356.190083 272.071157 
L 361.31405 272.975865 
L 366.438017 273.642692 
L 371.561983 273.203677 
L 376.68595 274.221167 
L 381.809917 274.52327 
L 386.933884 275.382305 
L 392.057851 275.386128 
L 397.181818 275.660545 
L 402.305785 276.329536 
L 407.429752 276.801713 
L 412.553719 276.792868 
L 417.677686 277.397656 
L 422.801653 276.569303 
L 427.92562 277.859124 
L 433.049587 277.962212 
L 438.173554 278.089093 
L 443.297521 279.13878 
L 448.421488 278.631659 
L 453.545455 278.555316 
L 458.669421 279.477967 
L 463.793388 280.275033 
L 468.917355 279.740944 
L 474.041322 280.101561 
L 479.165289 279.820116 
L 484.289256 280.611533 
L 489.413223 281.487283 
L 494.53719 281.448935 
L 499.661157 281.020136 
L 504.785124 281.260527 
L 509.909091 281.773964 
L 515.033058 282.048809 
L 520.157025 281.898345 
L 525.280992 281.998649 
L 530.404959 282.307261 
L 535.528926 282.416676 
L 540.652893 283.83689 
L 545.77686 283.678385 
L 550.900826 283.505682 
L 556.024793 283.383509 
L 561.14876 285.013906 
L 566.272727 284.246667 
L 571.396694 284.242717 
L 576.520661 284.649736 
L 581.644628 285.208634 
L 586.768595 284.726042 
L 591.892562 285.446029 
L 597.016529 285.636643 
L 602.140496 285.839925 
L 607.264463 286.203351 
L 612.38843 286.535625 
L 617.512397 286.397463 
L 622.636364 286.237906 
" clip-path="url(#paff085a6a0)" style="fill: none; stroke: #ff7f0e; stroke-width: 1.5; stroke-linecap: square"/>
   </g>
   <g id="line2d_19">
    <path d="M 115.363636 86.4 
L 120.487603 86.4 
L 125.61157 156.119136 
L 130.735537 168.140284 
L 135.859504 178.041294 
L 140.983471 182.799299 
L 146.107438 187.384317 
L 151.231405 191.292561 
L 156.355372 194.140619 
L 161.479339 196.851833 
L 166.603306 198.902051 
L 171.727273 200.959322 
L 176.85124 202.145854 
L 181.975207 203.292992 
L 187.099174 205.62539 
L 192.22314 207.336087 
L 197.347107 207.614854 
L 202.471074 209.093232 
L 207.595041 210.279821 
L 212.719008 212.764031 
L 217.842975 213.874305 
L 222.966942 213.065721 
L 228.090909 214.510906 
L 233.214876 215.3176 
L 238.338843 216.154851 
L 243.46281 218.610097 
L 248.586777 219.33929 
L 253.710744 218.638231 
L 258.834711 219.465156 
L 263.958678 222.54764 
L 269.082645 221.107285 
L 274.206612 222.581922 
L 279.330579 223.15256 
L 284.454545 224.147874 
L 289.578512 223.664778 
L 294.702479 225.944392 
L 299.826446 225.091684 
L 304.950413 227.07139 
L 310.07438 226.208584 
L 315.198347 227.948976 
L 320.322314 229.195554 
L 325.446281 227.262618 
L 330.570248 229.933372 
L 335.694215 230.52914 
L 340.818182 230.331961 
L 345.942149 231.414097 
L 351.066116 231.701917 
L 356.190083 232.728936 
L 361.31405 232.700767 
L 366.438017 233.029732 
L 371.561983 234.008709 
L 376.68595 233.604601 
L 381.809917 234.675595 
L 386.933884 232.302608 
L 392.057851 234.511388 
L 397.181818 235.904334 
L 402.305785 236.586139 
L 407.429752 236.918904 
L 412.553719 236.856405 
L 417.677686 237.439365 
L 422.801653 237.699965 
L 427.92562 239.035938 
L 433.049587 237.859793 
L 438.173554 239.245793 
L 443.297521 239.384002 
L 448.421488 240.371504 
L 453.545455 240.278135 
L 458.669421 240.49852 
L 463.793388 240.743109 
L 468.917355 240.4057 
L 474.041322 241.081892 
L 479.165289 239.160573 
L 484.289256 241.550691 
L 489.413223 242.721205 
L 494.53719 242.740792 
L 499.661157 242.522325 
L 504.785124 243.380526 
L 509.909091 243.334145 
L 515.033058 243.702741 
L 520.157025 243.777996 
L 525.280992 243.652824 
L 530.404959 244.55667 
L 535.528926 244.388408 
L 540.652893 242.029691 
L 545.77686 245.430916 
L 550.900826 245.051817 
L 556.024793 246.054255 
L 561.14876 245.484872 
L 566.272727 246.561119 
L 571.396694 247.045922 
L 576.520661 247.549471 
L 581.644628 246.798593 
L 586.768595 247.508557 
L 591.892562 247.562335 
L 597.016529 247.606679 
L 602.140496 247.950802 
L 607.264463 247.707534 
L 612.38843 247.857702 
L 617.512397 248.581158 
L 622.636364 248.686561 
" clip-path="url(#paff085a6a0)" style="fill: none; stroke: #2ca02c; stroke-width: 1.5; stroke-linecap: square"/>
   </g>
   <g id="line2d_20">
    <path d="M 115.363636 86.4 
L 120.487603 86.4 
L 125.61157 153.563893 
L 130.735537 166.435656 
L 135.859504 171.337089 
L 140.983471 175.106751 
L 146.107438 177.58761 
L 151.231405 179.791746 
L 156.355372 181.244837 
L 161.479339 183.395721 
L 166.603306 184.81999 
L 171.727273 186.137348 
L 176.85124 187.521946 
L 181.975207 188.829681 
L 187.099174 189.91968 
L 192.22314 191.01016 
L 197.347107 191.835298 
L 202.471074 192.746471 
L 207.595041 193.197775 
L 212.719008 193.720107 
L 217.842975 195.40608 
L 222.966942 196.195451 
L 228.090909 196.307808 
L 233.214876 196.592685 
L 238.338843 198.1549 
L 243.46281 198.288617 
L 248.586777 198.95122 
L 253.710744 199.581478 
L 258.834711 199.996488 
L 263.958678 200.322042 
L 269.082645 201.322446 
L 274.206612 201.617977 
L 279.330579 201.979221 
L 284.454545 202.225846 
L 289.578512 203.054707 
L 294.702479 202.703246 
L 299.826446 203.182573 
L 304.950413 203.718894 
L 310.07438 204.104973 
L 315.198347 204.763057 
L 320.322314 205.109457 
L 325.446281 204.845778 
L 330.570248 205.450497 
L 335.694215 206.049284 
L 340.818182 206.4051 
L 345.942149 206.582839 
L 351.066116 206.611896 
L 356.190083 206.731517 
L 361.31405 206.953107 
L 366.438017 207.557332 
L 371.561983 208.315664 
L 376.68595 208.492841 
L 381.809917 208.850452 
L 386.933884 208.496273 
L 392.057851 209.857934 
L 397.181818 209.198725 
L 402.305785 208.682145 
L 407.429752 210.490141 
L 412.553719 210.879973 
L 417.677686 210.435196 
L 422.801653 211.273136 
L 427.92562 210.954014 
L 433.049587 211.565528 
L 438.173554 211.626792 
L 443.297521 211.573517 
L 448.421488 212.365207 
L 453.545455 212.668943 
L 458.669421 212.580654 
L 463.793388 212.759786 
L 468.917355 212.351792 
L 474.041322 213.264926 
L 479.165289 213.423043 
L 484.289256 213.930114 
L 489.413223 214.105863 
L 494.53719 214.420352 
L 499.661157 214.086131 
L 504.785124 214.630704 
L 509.909091 214.81225 
L 515.033058 215.449819 
L 520.157025 215.075421 
L 525.280992 214.919495 
L 530.404959 215.921364 
L 535.528926 215.4004 
L 540.652893 215.536516 
L 545.77686 216.441537 
L 550.900826 216.074915 
L 556.024793 216.20322 
L 561.14876 217.05292 
L 566.272727 217.132193 
L 571.396694 216.893439 
L 576.520661 217.701186 
L 581.644628 217.094801 
L 586.768595 218.620087 
L 591.892562 218.58214 
L 597.016529 218.171932 
L 602.140496 217.30649 
L 607.264463 218.689064 
L 612.38843 218.830511 
L 617.512397 218.812378 
L 622.636364 219.340312 
" clip-path="url(#paff085a6a0)" style="fill: none; stroke: #d62728; stroke-width: 1.5; stroke-linecap: square"/>
   </g>
   <g id="patch_3">
    <path d="M 90 640.8 
L 90 86.4 
" style="fill: none; stroke: #000000; stroke-width: 0.8; stroke-linejoin: miter; stroke-linecap: square"/>
   </g>
   <g id="patch_4">
    <path d="M 648 640.8 
L 648 86.4 
" style="fill: none; stroke: #000000; stroke-width: 0.8; stroke-linejoin: miter; stroke-linecap: square"/>
   </g>
   <g id="patch_5">
    <path d="M 90 640.8 
L 648 640.8 
" style="fill: none; stroke: #000000; stroke-width: 0.8; stroke-linejoin: miter; stroke-linecap: square"/>
   </g>
   <g id="patch_6">
    <path d="M 90 86.4 
L 648 86.4 
" style="fill: none; stroke: #000000; stroke-width: 0.8; stroke-linejoin: miter; stroke-linecap: square"/>
   </g>
   <g id="legend_1">
    <g id="patch_7">
     <path d="M 102.6 631.8 
L 226.265625 631.8 
Q 229.865625 631.8 229.865625 628.2 
L 229.865625 524.3175 
Q 229.865625 520.7175 226.265625 520.7175 
L 102.6 520.7175 
Q 99 520.7175 99 524.3175 
L 99 628.2 
Q 99 631.8 102.6 631.8 
z
" style="fill: #ffffff; opacity: 0.8; stroke: #cccccc; stroke-linejoin: miter"/>
    </g>
    <g id="line2d_21">
     <path d="M 106.2 535.294688 
L 124.2 535.294688 
L 142.2 535.294688 
" style="fill: none; stroke: #1f77b4; stroke-width: 1.5; stroke-linecap: square"/>
    </g>
    <g id="text_13">
     <!-- scratch -->
     <g transform="translate(156.6 541.594687)scale(0.18 -0.18)">
      <defs>
       <path id="DejaVuSans-73" d="M 2834 3397 
L 2834 2853 
Q 2591 2978 2328 3040 
Q 2066 3103 1784 3103 
Q 1356 3103 1142 2972 
Q 928 2841 928 2578 
Q 928 2378 1081 2264 
Q 1234 2150 1697 2047 
L 1894 2003 
Q 2506 1872 2764 1633 
Q 3022 1394 3022 966 
Q 3022 478 2636 193 
Q 2250 -91 1575 -91 
Q 1294 -91 989 -36 
Q 684 19 347 128 
L 347 722 
Q 666 556 975 473 
Q 1284 391 1588 391 
Q 1994 391 2212 530 
Q 2431 669 2431 922 
Q 2431 1156 2273 1281 
Q 2116 1406 1581 1522 
L 1381 1569 
Q 847 1681 609 1914 
Q 372 2147 372 2553 
Q 372 3047 722 3315 
Q 1072 3584 1716 3584 
Q 2034 3584 2315 3537 
Q 2597 3491 2834 3397 
z
" transform="scale(0.015625)"/>
       <path id="DejaVuSans-63" d="M 3122 3366 
L 3122 2828 
Q 2878 2963 2633 3030 
Q 2388 3097 2138 3097 
Q 1578 3097 1268 2742 
Q 959 2388 959 1747 
Q 959 1106 1268 751 
Q 1578 397 2138 397 
Q 2388 397 2633 464 
Q 2878 531 3122 666 
L 3122 134 
Q 2881 22 2623 -34 
Q 2366 -91 2075 -91 
Q 1284 -91 818 406 
Q 353 903 353 1747 
Q 353 2603 823 3093 
Q 1294 3584 2113 3584 
Q 2378 3584 2631 3529 
Q 2884 3475 3122 3366 
z
" transform="scale(0.015625)"/>
       <path id="DejaVuSans-72" d="M 2631 2963 
Q 2534 3019 2420 3045 
Q 2306 3072 2169 3072 
Q 1681 3072 1420 2755 
Q 1159 2438 1159 1844 
L 1159 0 
L 581 0 
L 581 3500 
L 1159 3500 
L 1159 2956 
Q 1341 3275 1631 3429 
Q 1922 3584 2338 3584 
Q 2397 3584 2469 3576 
Q 2541 3569 2628 3553 
L 2631 2963 
z
" transform="scale(0.015625)"/>
       <path id="DejaVuSans-61" d="M 2194 1759 
Q 1497 1759 1228 1600 
Q 959 1441 959 1056 
Q 959 750 1161 570 
Q 1363 391 1709 391 
Q 2188 391 2477 730 
Q 2766 1069 2766 1631 
L 2766 1759 
L 2194 1759 
z
M 3341 1997 
L 3341 0 
L 2766 0 
L 2766 531 
Q 2569 213 2275 61 
Q 1981 -91 1556 -91 
Q 1019 -91 701 211 
Q 384 513 384 1019 
Q 384 1609 779 1909 
Q 1175 2209 1959 2209 
L 2766 2209 
L 2766 2266 
Q 2766 2663 2505 2880 
Q 2244 3097 1772 3097 
Q 1472 3097 1187 3025 
Q 903 2953 641 2809 
L 641 3341 
Q 956 3463 1253 3523 
Q 1550 3584 1831 3584 
Q 2591 3584 2966 3190 
Q 3341 2797 3341 1997 
z
" transform="scale(0.015625)"/>
       <path id="DejaVuSans-74" d="M 1172 4494 
L 1172 3500 
L 2356 3500 
L 2356 3053 
L 1172 3053 
L 1172 1153 
Q 1172 725 1289 603 
Q 1406 481 1766 481 
L 2356 481 
L 2356 0 
L 1766 0 
Q 1100 0 847 248 
Q 594 497 594 1153 
L 594 3053 
L 172 3053 
L 172 3500 
L 594 3500 
L 594 4494 
L 1172 4494 
z
" transform="scale(0.015625)"/>
       <path id="DejaVuSans-68" d="M 3513 2113 
L 3513 0 
L 2938 0 
L 2938 2094 
Q 2938 2591 2744 2837 
Q 2550 3084 2163 3084 
Q 1697 3084 1428 2787 
Q 1159 2491 1159 1978 
L 1159 0 
L 581 0 
L 581 4863 
L 1159 4863 
L 1159 2956 
Q 1366 3272 1645 3428 
Q 1925 3584 2291 3584 
Q 2894 3584 3203 3211 
Q 3513 2838 3513 2113 
z
" transform="scale(0.015625)"/>
      </defs>
      <use xlink:href="#DejaVuSans-73"/>
      <use xlink:href="#DejaVuSans-63" x="52.099609"/>
      <use xlink:href="#DejaVuSans-72" x="107.080078"/>
      <use xlink:href="#DejaVuSans-61" x="148.193359"/>
      <use xlink:href="#DejaVuSans-74" x="209.472656"/>
      <use xlink:href="#DejaVuSans-63" x="248.681641"/>
      <use xlink:href="#DejaVuSans-68" x="303.662109"/>
     </g>
    </g>
    <g id="line2d_22">
     <path d="M 106.2 561.715313 
L 124.2 561.715313 
L 142.2 561.715313 
" style="fill: none; stroke: #ff7f0e; stroke-width: 1.5; stroke-linecap: square"/>
    </g>
    <g id="text_14">
     <!-- nested -->
     <g transform="translate(156.6 568.015313)scale(0.18 -0.18)">
      <defs>
       <path id="DejaVuSans-6e" d="M 3513 2113 
L 3513 0 
L 2938 0 
L 2938 2094 
Q 2938 2591 2744 2837 
Q 2550 3084 2163 3084 
Q 1697 3084 1428 2787 
Q 1159 2491 1159 1978 
L 1159 0 
L 581 0 
L 581 3500 
L 1159 3500 
L 1159 2956 
Q 1366 3272 1645 3428 
Q 1925 3584 2291 3584 
Q 2894 3584 3203 3211 
Q 3513 2838 3513 2113 
z
" transform="scale(0.015625)"/>
       <path id="DejaVuSans-65" d="M 3597 1894 
L 3597 1613 
L 953 1613 
Q 991 1019 1311 708 
Q 1631 397 2203 397 
Q 2534 397 2845 478 
Q 3156 559 3463 722 
L 3463 178 
Q 3153 47 2828 -22 
Q 2503 -91 2169 -91 
Q 1331 -91 842 396 
Q 353 884 353 1716 
Q 353 2575 817 3079 
Q 1281 3584 2069 3584 
Q 2775 3584 3186 3129 
Q 3597 2675 3597 1894 
z
M 3022 2063 
Q 3016 2534 2758 2815 
Q 2500 3097 2075 3097 
Q 1594 3097 1305 2825 
Q 1016 2553 972 2059 
L 3022 2063 
z
" transform="scale(0.015625)"/>
       <path id="DejaVuSans-64" d="M 2906 2969 
L 2906 4863 
L 3481 4863 
L 3481 0 
L 2906 0 
L 2906 525 
Q 2725 213 2448 61 
Q 2172 -91 1784 -91 
Q 1150 -91 751 415 
Q 353 922 353 1747 
Q 353 2572 751 3078 
Q 1150 3584 1784 3584 
Q 2172 3584 2448 3432 
Q 2725 3281 2906 2969 
z
M 947 1747 
Q 947 1113 1208 752 
Q 1469 391 1925 391 
Q 2381 391 2643 752 
Q 2906 1113 2906 1747 
Q 2906 2381 2643 2742 
Q 2381 3103 1925 3103 
Q 1469 3103 1208 2742 
Q 947 2381 947 1747 
z
" transform="scale(0.015625)"/>
      </defs>
      <use xlink:href="#DejaVuSans-6e"/>
      <use xlink:href="#DejaVuSans-65" x="63.378906"/>
      <use xlink:href="#DejaVuSans-73" x="124.902344"/>
      <use xlink:href="#DejaVuSans-74" x="177.001953"/>
      <use xlink:href="#DejaVuSans-65" x="216.210938"/>
      <use xlink:href="#DejaVuSans-64" x="277.734375"/>
     </g>
    </g>
    <g id="line2d_23">
     <path d="M 106.2 588.135938 
L 124.2 588.135938 
L 142.2 588.135938 
" style="fill: none; stroke: #2ca02c; stroke-width: 1.5; stroke-linecap: square"/>
    </g>
    <g id="text_15">
     <!-- flat -->
     <g transform="translate(156.6 594.435938)scale(0.18 -0.18)">
      <defs>
       <path id="DejaVuSans-66" d="M 2375 4863 
L 2375 4384 
L 1825 4384 
Q 1516 4384 1395 4259 
Q 1275 4134 1275 3809 
L 1275 3500 
L 2222 3500 
L 2222 3053 
L 1275 3053 
L 1275 0 
L 697 0 
L 697 3053 
L 147 3053 
L 147 3500 
L 697 3500 
L 697 3744 
Q 697 4328 969 4595 
Q 1241 4863 1831 4863 
L 2375 4863 
z
" transform="scale(0.015625)"/>
       <path id="DejaVuSans-6c" d="M 603 4863 
L 1178 4863 
L 1178 0 
L 603 0 
L 603 4863 
z
" transform="scale(0.015625)"/>
      </defs>
      <use xlink:href="#DejaVuSans-66"/>
      <use xlink:href="#DejaVuSans-6c" x="35.205078"/>
      <use xlink:href="#DejaVuSans-61" x="62.988281"/>
      <use xlink:href="#DejaVuSans-74" x="124.267578"/>
     </g>
    </g>
    <g id="line2d_24">
     <path d="M 106.2 614.556563 
L 124.2 614.556563 
L 142.2 614.556563 
" style="fill: none; stroke: #d62728; stroke-width: 1.5; stroke-linecap: square"/>
    </g>
    <g id="text_16">
     <!-- shuffle -->
     <g transform="translate(156.6 620.856562)scale(0.18 -0.18)">
      <defs>
       <path id="DejaVuSans-75" d="M 544 1381 
L 544 3500 
L 1119 3500 
L 1119 1403 
Q 1119 906 1312 657 
Q 1506 409 1894 409 
Q 2359 409 2629 706 
Q 2900 1003 2900 1516 
L 2900 3500 
L 3475 3500 
L 3475 0 
L 2900 0 
L 2900 538 
Q 2691 219 2414 64 
Q 2138 -91 1772 -91 
Q 1169 -91 856 284 
Q 544 659 544 1381 
z
M 1991 3584 
L 1991 3584 
z
" transform="scale(0.015625)"/>
      </defs>
      <use xlink:href="#DejaVuSans-73"/>
      <use xlink:href="#DejaVuSans-68" x="52.099609"/>
      <use xlink:href="#DejaVuSans-75" x="115.478516"/>
      <use xlink:href="#DejaVuSans-66" x="178.857422"/>
      <use xlink:href="#DejaVuSans-66" x="214.0625"/>
      <use xlink:href="#DejaVuSans-6c" x="249.267578"/>
      <use xlink:href="#DejaVuSans-65" x="277.050781"/>
     </g>
    </g>
   </g>
  </g>
 </g>
 <defs>
  <clipPath id="paff085a6a0">
   <rect x="90" y="86.4" width="558" height="554.4"/>
  </clipPath>
 </defs>
</svg>
