<?xml version="1.0" encoding="utf-8" standalone="no"?>
<!DOCTYPE svg PUBLIC "-//W3C//DTD SVG 1.1//EN"
  "http://www.w3.org/Graphics/SVG/1.1/DTD/svg11.dtd">
<svg xmlns:xlink="http://www.w3.org/1999/xlink" width="720pt" height="720pt" viewBox="0 0 720 720" xmlns="http://www.w3.org/2000/svg" version="1.1">
 <metadata>
  <rdf:RDF xmlns:dc="http://purl.org/dc/elements/1.1/" xmlns:cc="http://creativecommons.org/ns#" xmlns:rdf="http://www.w3.org/1999/02/22-rdf-syntax-ns#">
   <cc:Work>
    <dc:type rdf:resource="http://purl.org/dc/dcmitype/StillImage"/>
    <dc:date>2023-12-06T15:51:01.363978</dc:date>
    <dc:format>image/svg+xml</dc:format>
    <dc:creator>
     <cc:Agent>
      <dc:title>Matplotlib v3.5.0, https://matplotlib.org/</dc:title>
     </cc:Agent>
    </dc:creator>
   </cc:Work>
  </rdf:RDF>
 </metadata>
 <defs>
  <style type="text/css">*{stroke-linejoin: round; stroke-linecap: butt}</style>
 </defs>
 <g id="figure_1">
  <g id="patch_1">
   <path d="M 0 720 
L 720 720 
L 720 0 
L 0 0 
z
" style="fill: #ffffff"/>
  </g>
  <g id="axes_1">
   <g id="patch_2">
    <path d="M 90 640.8 
L 648 640.8 
L 648 86.4 
L 90 86.4 
z
" style="fill: #ffffff"/>
   </g>
   <g id="matplotlib.axis_1">
    <g id="xtick_1">
     <g id="line2d_1">
      <defs>
       <path id="m22f7b31360" d="M 0 0 
L 0 3.5 
" style="stroke: #000000; stroke-width: 0.8"/>
      </defs>
      <g>
       <use xlink:href="#m22f7b31360" x="115.363636" y="640.8" style="stroke: #000000; stroke-width: 0.8"/>
      </g>
     </g>
     <g id="text_1">
      <!-- 0 -->
      <g transform="translate(112.182386 655.398438)scale(0.1 -0.1)">
       <defs>
        <path id="DejaVuSans-30" d="M 2034 4250 
Q 1547 4250 1301 3770 
Q 1056 3291 1056 2328 
Q 1056 1369 1301 889 
Q 1547 409 2034 409 
Q 2525 409 2770 889 
Q 3016 1369 3016 2328 
Q 3016 3291 2770 3770 
Q 2525 4250 2034 4250 
z
M 2034 4750 
Q 2819 4750 3233 4129 
Q 3647 3509 3647 2328 
Q 3647 1150 3233 529 
Q 2819 -91 2034 -91 
Q 1250 -91 836 529 
Q 422 1150 422 2328 
Q 422 3509 836 4129 
Q 1250 4750 2034 4750 
z
" transform="scale(0.015625)"/>
       </defs>
       <use xlink:href="#DejaVuSans-30"/>
      </g>
     </g>
    </g>
    <g id="xtick_2">
     <g id="line2d_2">
      <g>
       <use xlink:href="#m22f7b31360" x="217.842975" y="640.8" style="stroke: #000000; stroke-width: 0.8"/>
      </g>
     </g>
     <g id="text_2">
      <!-- 20 -->
      <g transform="translate(211.480475 655.398438)scale(0.1 -0.1)">
       <defs>
        <path id="DejaVuSans-32" d="M 1228 531 
L 3431 531 
L 3431 0 
L 469 0 
L 469 531 
Q 828 903 1448 1529 
Q 2069 2156 2228 2338 
Q 2531 2678 2651 2914 
Q 2772 3150 2772 3378 
Q 2772 3750 2511 3984 
Q 2250 4219 1831 4219 
Q 1534 4219 1204 4116 
Q 875 4013 500 3803 
L 500 4441 
Q 881 4594 1212 4672 
Q 1544 4750 1819 4750 
Q 2544 4750 2975 4387 
Q 3406 4025 3406 3419 
Q 3406 3131 3298 2873 
Q 3191 2616 2906 2266 
Q 2828 2175 2409 1742 
Q 1991 1309 1228 531 
z
" transform="scale(0.015625)"/>
       </defs>
       <use xlink:href="#DejaVuSans-32"/>
       <use xlink:href="#DejaVuSans-30" x="63.623047"/>
      </g>
     </g>
    </g>
    <g id="xtick_3">
     <g id="line2d_3">
      <g>
       <use xlink:href="#m22f7b31360" x="320.322314" y="640.8" style="stroke: #000000; stroke-width: 0.8"/>
      </g>
     </g>
     <g id="text_3">
      <!-- 40 -->
      <g transform="translate(313.959814 655.398438)scale(0.1 -0.1)">
       <defs>
        <path id="DejaVuSans-34" d="M 2419 4116 
L 825 1625 
L 2419 1625 
L 2419 4116 
z
M 2253 4666 
L 3047 4666 
L 3047 1625 
L 3713 1625 
L 3713 1100 
L 3047 1100 
L 3047 0 
L 2419 0 
L 2419 1100 
L 313 1100 
L 313 1709 
L 2253 4666 
z
" transform="scale(0.015625)"/>
       </defs>
       <use xlink:href="#DejaVuSans-34"/>
       <use xlink:href="#DejaVuSans-30" x="63.623047"/>
      </g>
     </g>
    </g>
    <g id="xtick_4">
     <g id="line2d_4">
      <g>
       <use xlink:href="#m22f7b31360" x="422.801653" y="640.8" style="stroke: #000000; stroke-width: 0.8"/>
      </g>
     </g>
     <g id="text_4">
      <!-- 60 -->
      <g transform="translate(416.439153 655.398438)scale(0.1 -0.1)">
       <defs>
        <path id="DejaVuSans-36" d="M 2113 2584 
Q 1688 2584 1439 2293 
Q 1191 2003 1191 1497 
Q 1191 994 1439 701 
Q 1688 409 2113 409 
Q 2538 409 2786 701 
Q 3034 994 3034 1497 
Q 3034 2003 2786 2293 
Q 2538 2584 2113 2584 
z
M 3366 4563 
L 3366 3988 
Q 3128 4100 2886 4159 
Q 2644 4219 2406 4219 
Q 1781 4219 1451 3797 
Q 1122 3375 1075 2522 
Q 1259 2794 1537 2939 
Q 1816 3084 2150 3084 
Q 2853 3084 3261 2657 
Q 3669 2231 3669 1497 
Q 3669 778 3244 343 
Q 2819 -91 2113 -91 
Q 1303 -91 875 529 
Q 447 1150 447 2328 
Q 447 3434 972 4092 
Q 1497 4750 2381 4750 
Q 2619 4750 2861 4703 
Q 3103 4656 3366 4563 
z
" transform="scale(0.015625)"/>
       </defs>
       <use xlink:href="#DejaVuSans-36"/>
       <use xlink:href="#DejaVuSans-30" x="63.623047"/>
      </g>
     </g>
    </g>
    <g id="xtick_5">
     <g id="line2d_5">
      <g>
       <use xlink:href="#m22f7b31360" x="525.280992" y="640.8" style="stroke: #000000; stroke-width: 0.8"/>
      </g>
     </g>
     <g id="text_5">
      <!-- 80 -->
      <g transform="translate(518.918492 655.398438)scale(0.1 -0.1)">
       <defs>
        <path id="DejaVuSans-38" d="M 2034 2216 
Q 1584 2216 1326 1975 
Q 1069 1734 1069 1313 
Q 1069 891 1326 650 
Q 1584 409 2034 409 
Q 2484 409 2743 651 
Q 3003 894 3003 1313 
Q 3003 1734 2745 1975 
Q 2488 2216 2034 2216 
z
M 1403 2484 
Q 997 2584 770 2862 
Q 544 3141 544 3541 
Q 544 4100 942 4425 
Q 1341 4750 2034 4750 
Q 2731 4750 3128 4425 
Q 3525 4100 3525 3541 
Q 3525 3141 3298 2862 
Q 3072 2584 2669 2484 
Q 3125 2378 3379 2068 
Q 3634 1759 3634 1313 
Q 3634 634 3220 271 
Q 2806 -91 2034 -91 
Q 1263 -91 848 271 
Q 434 634 434 1313 
Q 434 1759 690 2068 
Q 947 2378 1403 2484 
z
M 1172 3481 
Q 1172 3119 1398 2916 
Q 1625 2713 2034 2713 
Q 2441 2713 2670 2916 
Q 2900 3119 2900 3481 
Q 2900 3844 2670 4047 
Q 2441 4250 2034 4250 
Q 1625 4250 1398 4047 
Q 1172 3844 1172 3481 
z
" transform="scale(0.015625)"/>
       </defs>
       <use xlink:href="#DejaVuSans-38"/>
       <use xlink:href="#DejaVuSans-30" x="63.623047"/>
      </g>
     </g>
    </g>
    <g id="xtick_6">
     <g id="line2d_6">
      <g>
       <use xlink:href="#m22f7b31360" x="627.760331" y="640.8" style="stroke: #000000; stroke-width: 0.8"/>
      </g>
     </g>
     <g id="text_6">
      <!-- 100 -->
      <g transform="translate(618.216581 655.398438)scale(0.1 -0.1)">
       <defs>
        <path id="DejaVuSans-31" d="M 794 531 
L 1825 531 
L 1825 4091 
L 703 3866 
L 703 4441 
L 1819 4666 
L 2450 4666 
L 2450 531 
L 3481 531 
L 3481 0 
L 794 0 
L 794 531 
z
" transform="scale(0.015625)"/>
       </defs>
       <use xlink:href="#DejaVuSans-31"/>
       <use xlink:href="#DejaVuSans-30" x="63.623047"/>
       <use xlink:href="#DejaVuSans-30" x="127.246094"/>
      </g>
     </g>
    </g>
   </g>
   <g id="matplotlib.axis_2">
    <g id="ytick_1">
     <g id="line2d_7">
      <defs>
       <path id="m14dd025ca9" d="M 0 0 
L -3.5 0 
" style="stroke: #000000; stroke-width: 0.8"/>
      </defs>
      <g>
       <use xlink:href="#m14dd025ca9" x="90" y="640.8" style="stroke: #000000; stroke-width: 0.8"/>
      </g>
     </g>
     <g id="text_7">
      <!-- $\mathdefault{10^{-1}}$ -->
      <g transform="translate(59.5 644.599219)scale(0.1 -0.1)">
       <defs>
        <path id="DejaVuSans-2212" d="M 678 2272 
L 4684 2272 
L 4684 1741 
L 678 1741 
L 678 2272 
z
" transform="scale(0.015625)"/>
       </defs>
       <use xlink:href="#DejaVuSans-31" transform="translate(0 0.684375)"/>
       <use xlink:href="#DejaVuSans-30" transform="translate(63.623047 0.684375)"/>
       <use xlink:href="#DejaVuSans-2212" transform="translate(128.203125 38.965625)scale(0.7)"/>
       <use xlink:href="#DejaVuSans-31" transform="translate(186.855469 38.965625)scale(0.7)"/>
      </g>
     </g>
    </g>
    <g id="ytick_2">
     <g id="line2d_8">
      <g>
       <use xlink:href="#m14dd025ca9" x="90" y="86.4" style="stroke: #000000; stroke-width: 0.8"/>
      </g>
     </g>
     <g id="text_8">
      <!-- $\mathdefault{10^{0}}$ -->
      <g transform="translate(65.4 90.199219)scale(0.1 -0.1)">
       <use xlink:href="#DejaVuSans-31" transform="translate(0 0.765625)"/>
       <use xlink:href="#DejaVuSans-30" transform="translate(63.623047 0.765625)"/>
       <use xlink:href="#DejaVuSans-30" transform="translate(128.203125 39.046875)scale(0.7)"/>
      </g>
     </g>
    </g>
    <g id="ytick_3">
     <g id="line2d_9">
      <defs>
       <path id="m26ac04cb4f" d="M 0 0 
L -2 0 
" style="stroke: #000000; stroke-width: 0.6"/>
      </defs>
      <g>
       <use xlink:href="#m26ac04cb4f" x="90" y="473.90897" style="stroke: #000000; stroke-width: 0.6"/>
      </g>
     </g>
     <g id="text_9">
      <!-- $\mathdefault{2\times10^{-1}}$ -->
      <g transform="translate(42.5 477.708189)scale(0.1 -0.1)">
       <defs>
        <path id="DejaVuSans-d7" d="M 4488 3438 
L 3059 2003 
L 4488 575 
L 4116 197 
L 2681 1631 
L 1247 197 
L 878 575 
L 2303 2003 
L 878 3438 
L 1247 3816 
L 2681 2381 
L 4116 3816 
L 4488 3438 
z
" transform="scale(0.015625)"/>
       </defs>
       <use xlink:href="#DejaVuSans-32" transform="translate(0 0.684375)"/>
       <use xlink:href="#DejaVuSans-d7" transform="translate(83.105469 0.684375)"/>
       <use xlink:href="#DejaVuSans-31" transform="translate(186.376953 0.684375)"/>
       <use xlink:href="#DejaVuSans-30" transform="translate(250 0.684375)"/>
       <use xlink:href="#DejaVuSans-2212" transform="translate(314.580078 38.965625)scale(0.7)"/>
       <use xlink:href="#DejaVuSans-31" transform="translate(373.232422 38.965625)scale(0.7)"/>
      </g>
     </g>
    </g>
    <g id="ytick_4">
     <g id="line2d_10">
      <g>
       <use xlink:href="#m26ac04cb4f" x="90" y="376.283976" style="stroke: #000000; stroke-width: 0.6"/>
      </g>
     </g>
     <g id="text_10">
      <!-- $\mathdefault{3\times10^{-1}}$ -->
      <g transform="translate(42.5 380.083195)scale(0.1 -0.1)">
       <defs>
        <path id="DejaVuSans-33" d="M 2597 2516 
Q 3050 2419 3304 2112 
Q 3559 1806 3559 1356 
Q 3559 666 3084 287 
Q 2609 -91 1734 -91 
Q 1441 -91 1130 -33 
Q 819 25 488 141 
L 488 750 
Q 750 597 1062 519 
Q 1375 441 1716 441 
Q 2309 441 2620 675 
Q 2931 909 2931 1356 
Q 2931 1769 2642 2001 
Q 2353 2234 1838 2234 
L 1294 2234 
L 1294 2753 
L 1863 2753 
Q 2328 2753 2575 2939 
Q 2822 3125 2822 3475 
Q 2822 3834 2567 4026 
Q 2313 4219 1838 4219 
Q 1578 4219 1281 4162 
Q 984 4106 628 3988 
L 628 4550 
Q 988 4650 1302 4700 
Q 1616 4750 1894 4750 
Q 2613 4750 3031 4423 
Q 3450 4097 3450 3541 
Q 3450 3153 3228 2886 
Q 3006 2619 2597 2516 
z
" transform="scale(0.015625)"/>
       </defs>
       <use xlink:href="#DejaVuSans-33" transform="translate(0 0.684375)"/>
       <use xlink:href="#DejaVuSans-d7" transform="translate(83.105469 0.684375)"/>
       <use xlink:href="#DejaVuSans-31" transform="translate(186.376953 0.684375)"/>
       <use xlink:href="#DejaVuSans-30" transform="translate(250 0.684375)"/>
       <use xlink:href="#DejaVuSans-2212" transform="translate(314.580078 38.965625)scale(0.7)"/>
       <use xlink:href="#DejaVuSans-31" transform="translate(373.232422 38.965625)scale(0.7)"/>
      </g>
     </g>
    </g>
    <g id="ytick_5">
     <g id="line2d_11">
      <g>
       <use xlink:href="#m26ac04cb4f" x="90" y="307.017941" style="stroke: #000000; stroke-width: 0.6"/>
      </g>
     </g>
     <g id="text_11">
      <!-- $\mathdefault{4\times10^{-1}}$ -->
      <g transform="translate(42.5 310.81716)scale(0.1 -0.1)">
       <use xlink:href="#DejaVuSans-34" transform="translate(0 0.684375)"/>
       <use xlink:href="#DejaVuSans-d7" transform="translate(83.105469 0.684375)"/>
       <use xlink:href="#DejaVuSans-31" transform="translate(186.376953 0.684375)"/>
       <use xlink:href="#DejaVuSans-30" transform="translate(250 0.684375)"/>
       <use xlink:href="#DejaVuSans-2212" transform="translate(314.580078 38.965625)scale(0.7)"/>
       <use xlink:href="#DejaVuSans-31" transform="translate(373.232422 38.965625)scale(0.7)"/>
      </g>
     </g>
    </g>
    <g id="ytick_6">
     <g id="line2d_12">
      <g>
       <use xlink:href="#m26ac04cb4f" x="90" y="253.29103" style="stroke: #000000; stroke-width: 0.6"/>
      </g>
     </g>
    </g>
    <g id="ytick_7">
     <g id="line2d_13">
      <g>
       <use xlink:href="#m26ac04cb4f" x="90" y="209.392947" style="stroke: #000000; stroke-width: 0.6"/>
      </g>
     </g>
     <g id="text_12">
      <!-- $\mathdefault{6\times10^{-1}}$ -->
      <g transform="translate(42.5 213.192166)scale(0.1 -0.1)">
       <use xlink:href="#DejaVuSans-36" transform="translate(0 0.684375)"/>
       <use xlink:href="#DejaVuSans-d7" transform="translate(83.105469 0.684375)"/>
       <use xlink:href="#DejaVuSans-31" transform="translate(186.376953 0.684375)"/>
       <use xlink:href="#DejaVuSans-30" transform="translate(250 0.684375)"/>
       <use xlink:href="#DejaVuSans-2212" transform="translate(314.580078 38.965625)scale(0.7)"/>
       <use xlink:href="#DejaVuSans-31" transform="translate(373.232422 38.965625)scale(0.7)"/>
      </g>
     </g>
    </g>
    <g id="ytick_8">
     <g id="line2d_14">
      <g>
       <use xlink:href="#m26ac04cb4f" x="90" y="172.277647" style="stroke: #000000; stroke-width: 0.6"/>
      </g>
     </g>
    </g>
    <g id="ytick_9">
     <g id="line2d_15">
      <g>
       <use xlink:href="#m26ac04cb4f" x="90" y="140.126911" style="stroke: #000000; stroke-width: 0.6"/>
      </g>
     </g>
    </g>
    <g id="ytick_10">
     <g id="line2d_16">
      <g>
       <use xlink:href="#m26ac04cb4f" x="90" y="111.767953" style="stroke: #000000; stroke-width: 0.6"/>
      </g>
     </g>
    </g>
   </g>
   <g id="line2d_17">
    <path d="M 115.363636 86.4 
L 120.487603 86.4 
L 125.61157 91.986958 
L 130.735537 91.99486 
L 135.859504 92.007037 
L 140.983471 97.079941 
L 146.107438 99.995915 
L 151.231405 102.074653 
L 156.355372 104.867386 
L 161.479339 105.799506 
L 166.603306 103.626492 
L 171.727273 106.592125 
L 176.85124 108.016659 
L 181.975207 106.604205 
L 187.099174 109.240017 
L 192.22314 109.463049 
L 197.347107 105.831241 
L 202.471074 109.411977 
L 207.595041 111.254925 
L 212.719008 112.33518 
L 217.842975 110.746031 
L 222.966942 112.724369 
L 228.090909 112.118335 
L 233.214876 113.553247 
L 238.338843 111.992851 
L 243.46281 113.63805 
L 248.586777 113.715778 
L 253.710744 114.68044 
L 258.834711 115.377607 
L 263.958678 114.789715 
L 269.082645 115.474924 
L 274.206612 115.197355 
L 279.330579 114.924678 
L 284.454545 117.369738 
L 289.578512 116.04198 
L 294.702479 116.031186 
L 299.826446 116.131106 
L 304.950413 116.869266 
L 310.07438 117.315085 
L 315.198347 118.260656 
L 320.322314 117.7471 
L 325.446281 119.13336 
L 330.570248 118.518132 
L 335.694215 118.722601 
L 340.818182 119.344852 
L 345.942149 119.796206 
L 351.066116 118.852562 
L 356.190083 119.890296 
L 361.31405 119.875485 
L 366.438017 119.509019 
L 371.561983 119.434535 
L 376.68595 119.208211 
L 381.809917 120.541538 
L 386.933884 120.807426 
L 392.057851 120.322367 
L 397.181818 121.540706 
L 402.305785 121.856665 
L 407.429752 121.517259 
L 412.553719 121.972524 
L 417.677686 122.173572 
L 422.801653 120.883926 
L 427.92562 121.905872 
L 433.049587 121.713539 
L 438.173554 122.900659 
L 443.297521 123.245166 
L 448.421488 123.039379 
L 453.545455 123.877085 
L 458.669421 123.403313 
L 463.793388 124.06216 
L 468.917355 123.441456 
L 474.041322 123.835973 
L 479.165289 124.560134 
L 484.289256 124.279473 
L 489.413223 122.408168 
L 494.53719 124.703616 
L 499.661157 123.857953 
L 504.785124 123.29312 
L 509.909091 124.542714 
L 515.033058 124.50559 
L 520.157025 124.775255 
L 525.280992 124.562034 
L 530.404959 124.826577 
L 535.528926 124.828412 
L 540.652893 124.270924 
L 545.77686 125.431661 
L 550.900826 125.572286 
L 556.024793 125.677919 
L 561.14876 125.843335 
L 566.272727 126.238899 
L 571.396694 125.558642 
L 576.520661 125.70904 
L 581.644628 126.857308 
L 586.768595 126.115891 
L 591.892562 126.019879 
L 597.016529 126.750835 
L 602.140496 125.47276 
L 607.264463 126.20197 
L 612.38843 126.087815 
L 617.512397 126.684934 
L 622.636364 126.727435 
" clip-path="url(#paca03acb00)" style="fill: none; stroke: #1f77b4; stroke-width: 1.5; stroke-linecap: square"/>
   </g>
   <g id="line2d_18">
    <path d="M 115.363636 86.4 
L 120.487603 86.4 
L 125.61157 200.416547 
L 130.735537 221.299763 
L 135.859504 228.805686 
L 140.983471 233.378304 
L 146.107438 236.808047 
L 151.231405 239.203044 
L 156.355372 241.10642 
L 161.479339 243.979518 
L 166.603306 245.740117 
L 171.727273 247.66519 
L 176.85124 248.936965 
L 181.975207 250.312543 
L 187.099174 252.218861 
L 192.22314 253.289279 
L 197.347107 254.388638 
L 202.471074 255.926109 
L 207.595041 256.402159 
L 212.719008 257.697877 
L 217.842975 258.075975 
L 222.966942 259.60933 
L 228.090909 260.23199 
L 233.214876 261.438868 
L 238.338843 262.352209 
L 243.46281 262.424 
L 248.586777 263.486366 
L 253.710744 264.390434 
L 258.834711 264.509803 
L 263.958678 265.351422 
L 269.082645 265.561513 
L 274.206612 266.18497 
L 279.330579 266.727329 
L 284.454545 266.862878 
L 289.578512 267.503222 
L 294.702479 267.616848 
L 299.826446 268.094844 
L 304.950413 268.68055 
L 310.07438 269.523022 
L 315.198347 269.093671 
L 320.322314 270.718655 
L 325.446281 270.917858 
L 330.570248 271.557387 
L 335.694215 271.595058 
L 340.818182 272.220524 
L 345.942149 271.840601 
L 351.066116 272.564928 
L 356.190083 272.515695 
L 361.31405 273.436449 
L 366.438017 274.015242 
L 371.561983 274.288554 
L 376.68595 274.787479 
L 381.809917 274.47503 
L 386.933884 274.434806 
L 392.057851 274.830712 
L 397.181818 276.012716 
L 402.305785 276.472119 
L 407.429752 276.400975 
L 412.553719 277.252701 
L 417.677686 277.0206 
L 422.801653 277.170613 
L 427.92562 277.662689 
L 433.049587 277.445978 
L 438.173554 278.119638 
L 443.297521 278.637479 
L 448.421488 278.131507 
L 453.545455 279.228942 
L 458.669421 278.980846 
L 463.793388 279.743074 
L 468.917355 280.136342 
L 474.041322 280.853287 
L 479.165289 280.425 
L 484.289256 280.749099 
L 489.413223 280.943772 
L 494.53719 281.254208 
L 499.661157 280.572891 
L 504.785124 281.128323 
L 509.909091 281.921797 
L 515.033058 281.566531 
L 520.157025 282.014349 
L 525.280992 282.655759 
L 530.404959 282.76157 
L 535.528926 283.359719 
L 540.652893 283.309253 
L 545.77686 283.138358 
L 550.900826 283.253158 
L 556.024793 283.891069 
L 561.14876 284.402574 
L 566.272727 284.399161 
L 571.396694 284.249751 
L 576.520661 285.179257 
L 581.644628 285.023189 
L 586.768595 285.560113 
L 591.892562 285.135288 
L 597.016529 284.929702 
L 602.140496 285.417394 
L 607.264463 285.977981 
L 612.38843 286.10378 
L 617.512397 287.044216 
L 622.636364 286.123944 
" clip-path="url(#paca03acb00)" style="fill: none; stroke: #ff7f0e; stroke-width: 1.5; stroke-linecap: square"/>
   </g>
   <g id="line2d_19">
    <path d="M 115.363636 86.4 
L 120.487603 86.4 
L 125.61157 156.119136 
L 130.735537 168.140284 
L 135.859504 178.041336 
L 140.983471 182.799471 
L 146.107438 186.679175 
L 151.231405 190.188724 
L 156.355372 194.141337 
L 161.479339 196.131403 
L 166.603306 196.868998 
L 171.727273 200.742324 
L 176.85124 201.777268 
L 181.975207 202.937341 
L 187.099174 206.052893 
L 192.22314 205.179112 
L 197.347107 208.211295 
L 202.471074 209.136475 
L 207.595041 210.327263 
L 212.719008 210.441586 
L 217.842975 212.377194 
L 222.966942 211.717171 
L 228.090909 213.427178 
L 233.214876 214.734616 
L 238.338843 215.75848 
L 243.46281 218.610445 
L 248.586777 217.247619 
L 253.710744 220.44957 
L 258.834711 219.107651 
L 263.958678 220.153223 
L 269.082645 222.038144 
L 274.206612 221.13413 
L 279.330579 223.530204 
L 284.454545 224.642925 
L 289.578512 225.107692 
L 294.702479 226.074913 
L 299.826446 224.988462 
L 304.950413 224.338473 
L 310.07438 225.367056 
L 315.198347 227.777132 
L 320.322314 229.492771 
L 325.446281 228.9421 
L 330.570248 230.368153 
L 335.694215 231.210274 
L 340.818182 230.481435 
L 345.942149 231.642672 
L 351.066116 230.133405 
L 356.190083 231.606996 
L 361.31405 233.334074 
L 366.438017 233.489073 
L 371.561983 233.487566 
L 376.68595 234.884235 
L 381.809917 235.045291 
L 386.933884 233.984575 
L 392.057851 234.368625 
L 397.181818 236.360903 
L 402.305785 236.191774 
L 407.429752 236.334472 
L 412.553719 237.518575 
L 417.677686 238.423576 
L 422.801653 237.651195 
L 427.92562 238.332766 
L 433.049587 238.855837 
L 438.173554 239.346022 
L 443.297521 238.776619 
L 448.421488 239.656778 
L 453.545455 239.948654 
L 458.669421 239.362438 
L 463.793388 240.66196 
L 468.917355 241.15292 
L 474.041322 241.824812 
L 479.165289 241.930611 
L 484.289256 242.45391 
L 489.413223 242.797171 
L 494.53719 242.577445 
L 499.661157 242.644769 
L 504.785124 243.213551 
L 509.909091 242.679208 
L 515.033058 243.557016 
L 520.157025 243.718795 
L 525.280992 244.418725 
L 530.404959 244.16822 
L 535.528926 245.010742 
L 540.652893 244.72541 
L 545.77686 244.46681 
L 550.900826 245.311157 
L 556.024793 245.642836 
L 561.14876 245.637553 
L 566.272727 246.145239 
L 571.396694 245.79762 
L 576.520661 246.39226 
L 581.644628 246.174692 
L 586.768595 247.861912 
L 591.892562 246.867332 
L 597.016529 247.526127 
L 602.140496 247.832925 
L 607.264463 248.503599 
L 612.38843 248.159304 
L 617.512397 247.587618 
L 622.636364 249.349963 
" clip-path="url(#paca03acb00)" style="fill: none; stroke: #2ca02c; stroke-width: 1.5; stroke-linecap: square"/>
   </g>
   <g id="line2d_20">
    <path d="M 115.363636 86.4 
L 120.487603 86.4 
L 125.61157 153.563893 
L 130.735537 166.435656 
L 135.859504 171.337028 
L 140.983471 173.984899 
L 146.107438 176.565503 
L 151.231405 179.784681 
L 156.355372 181.913797 
L 161.479339 183.419727 
L 166.603306 184.842107 
L 171.727273 186.215323 
L 176.85124 187.60533 
L 181.975207 188.863173 
L 187.099174 190.086161 
L 192.22314 191.207646 
L 197.347107 191.741767 
L 202.471074 193.013755 
L 207.595041 192.652608 
L 212.719008 194.279402 
L 217.842975 194.392083 
L 222.966942 195.176237 
L 228.090909 196.216509 
L 233.214876 197.138582 
L 238.338843 198.058084 
L 243.46281 198.210013 
L 248.586777 198.62749 
L 253.710744 199.645991 
L 258.834711 200.439315 
L 263.958678 199.996649 
L 269.082645 200.76863 
L 274.206612 201.839916 
L 279.330579 202.011996 
L 284.454545 201.805102 
L 289.578512 203.041824 
L 294.702479 203.118387 
L 299.826446 203.287535 
L 304.950413 203.501963 
L 310.07438 204.314392 
L 315.198347 204.432033 
L 320.322314 205.192556 
L 325.446281 205.650563 
L 330.570248 205.246741 
L 335.694215 205.872834 
L 340.818182 205.66872 
L 345.942149 206.452376 
L 351.066116 207.400885 
L 356.190083 207.07664 
L 361.31405 207.75424 
L 366.438017 208.051378 
L 371.561983 207.578602 
L 376.68595 207.99632 
L 381.809917 208.839761 
L 386.933884 209.543815 
L 392.057851 209.08382 
L 397.181818 209.311675 
L 402.305785 209.991743 
L 407.429752 209.786721 
L 412.553719 209.961508 
L 417.677686 210.3501 
L 422.801653 210.876387 
L 427.92562 210.752501 
L 433.049587 211.595313 
L 438.173554 211.694905 
L 443.297521 211.927397 
L 448.421488 211.639273 
L 453.545455 212.345496 
L 458.669421 212.327603 
L 463.793388 212.902135 
L 468.917355 212.988964 
L 474.041322 213.473955 
L 479.165289 213.43282 
L 484.289256 213.111237 
L 489.413223 213.930821 
L 494.53719 214.887583 
L 499.661157 214.58397 
L 504.785124 215.098099 
L 509.909091 214.608778 
L 515.033058 215.339811 
L 520.157025 215.484724 
L 525.280992 215.494807 
L 530.404959 215.791834 
L 535.528926 215.256395 
L 540.652893 215.841677 
L 545.77686 215.892759 
L 550.900826 217.137035 
L 556.024793 217.102703 
L 561.14876 216.612524 
L 566.272727 216.625242 
L 571.396694 217.634719 
L 576.520661 216.740795 
L 581.644628 217.043092 
L 586.768595 217.728373 
L 591.892562 217.765616 
L 597.016529 218.016022 
L 602.140496 218.409003 
L 607.264463 217.973955 
L 612.38843 218.2752 
L 617.512397 219.165857 
L 622.636364 219.13263 
" clip-path="url(#paca03acb00)" style="fill: none; stroke: #d62728; stroke-width: 1.5; stroke-linecap: square"/>
   </g>
   <g id="patch_3">
    <path d="M 90 640.8 
L 90 86.4 
" style="fill: none; stroke: #000000; stroke-width: 0.8; stroke-linejoin: miter; stroke-linecap: square"/>
   </g>
   <g id="patch_4">
    <path d="M 648 640.8 
L 648 86.4 
" style="fill: none; stroke: #000000; stroke-width: 0.8; stroke-linejoin: miter; stroke-linecap: square"/>
   </g>
   <g id="patch_5">
    <path d="M 90 640.8 
L 648 640.8 
" style="fill: none; stroke: #000000; stroke-width: 0.8; stroke-linejoin: miter; stroke-linecap: square"/>
   </g>
   <g id="patch_6">
    <path d="M 90 86.4 
L 648 86.4 
" style="fill: none; stroke: #000000; stroke-width: 0.8; stroke-linejoin: miter; stroke-linecap: square"/>
   </g>
   <g id="text_13">
    <!-- Inertia of KMeans -->
    <g transform="translate(316.5675 80.4)scale(0.12 -0.12)">
     <defs>
      <path id="DejaVuSans-49" d="M 628 4666 
L 1259 4666 
L 1259 0 
L 628 0 
L 628 4666 
z
" transform="scale(0.015625)"/>
      <path id="DejaVuSans-6e" d="M 3513 2113 
L 3513 0 
L 2938 0 
L 2938 2094 
Q 2938 2591 2744 2837 
Q 2550 3084 2163 3084 
Q 1697 3084 1428 2787 
Q 1159 2491 1159 1978 
L 1159 0 
L 581 0 
L 581 3500 
L 1159 3500 
L 1159 2956 
Q 1366 3272 1645 3428 
Q 1925 3584 2291 3584 
Q 2894 3584 3203 3211 
Q 3513 2838 3513 2113 
z
" transform="scale(0.015625)"/>
      <path id="DejaVuSans-65" d="M 3597 1894 
L 3597 1613 
L 953 1613 
Q 991 1019 1311 708 
Q 1631 397 2203 397 
Q 2534 397 2845 478 
Q 3156 559 3463 722 
L 3463 178 
Q 3153 47 2828 -22 
Q 2503 -91 2169 -91 
Q 1331 -91 842 396 
Q 353 884 353 1716 
Q 353 2575 817 3079 
Q 1281 3584 2069 3584 
Q 2775 3584 3186 3129 
Q 3597 2675 3597 1894 
z
M 3022 2063 
Q 3016 2534 2758 2815 
Q 2500 3097 2075 3097 
Q 1594 3097 1305 2825 
Q 1016 2553 972 2059 
L 3022 2063 
z
" transform="scale(0.015625)"/>
      <path id="DejaVuSans-72" d="M 2631 2963 
Q 2534 3019 2420 3045 
Q 2306 3072 2169 3072 
Q 1681 3072 1420 2755 
Q 1159 2438 1159 1844 
L 1159 0 
L 581 0 
L 581 3500 
L 1159 3500 
L 1159 2956 
Q 1341 3275 1631 3429 
Q 1922 3584 2338 3584 
Q 2397 3584 2469 3576 
Q 2541 3569 2628 3553 
L 2631 2963 
z
" transform="scale(0.015625)"/>
      <path id="DejaVuSans-74" d="M 1172 4494 
L 1172 3500 
L 2356 3500 
L 2356 3053 
L 1172 3053 
L 1172 1153 
Q 1172 725 1289 603 
Q 1406 481 1766 481 
L 2356 481 
L 2356 0 
L 1766 0 
Q 1100 0 847 248 
Q 594 497 594 1153 
L 594 3053 
L 172 3053 
L 172 3500 
L 594 3500 
L 594 4494 
L 1172 4494 
z
" transform="scale(0.015625)"/>
      <path id="DejaVuSans-69" d="M 603 3500 
L 1178 3500 
L 1178 0 
L 603 0 
L 603 3500 
z
M 603 4863 
L 1178 4863 
L 1178 4134 
L 603 4134 
L 603 4863 
z
" transform="scale(0.015625)"/>
      <path id="DejaVuSans-61" d="M 2194 1759 
Q 1497 1759 1228 1600 
Q 959 1441 959 1056 
Q 959 750 1161 570 
Q 1363 391 1709 391 
Q 2188 391 2477 730 
Q 2766 1069 2766 1631 
L 2766 1759 
L 2194 1759 
z
M 3341 1997 
L 3341 0 
L 2766 0 
L 2766 531 
Q 2569 213 2275 61 
Q 1981 -91 1556 -91 
Q 1019 -91 701 211 
Q 384 513 384 1019 
Q 384 1609 779 1909 
Q 1175 2209 1959 2209 
L 2766 2209 
L 2766 2266 
Q 2766 2663 2505 2880 
Q 2244 3097 1772 3097 
Q 1472 3097 1187 3025 
Q 903 2953 641 2809 
L 641 3341 
Q 956 3463 1253 3523 
Q 1550 3584 1831 3584 
Q 2591 3584 2966 3190 
Q 3341 2797 3341 1997 
z
" transform="scale(0.015625)"/>
      <path id="DejaVuSans-20" transform="scale(0.015625)"/>
      <path id="DejaVuSans-6f" d="M 1959 3097 
Q 1497 3097 1228 2736 
Q 959 2375 959 1747 
Q 959 1119 1226 758 
Q 1494 397 1959 397 
Q 2419 397 2687 759 
Q 2956 1122 2956 1747 
Q 2956 2369 2687 2733 
Q 2419 3097 1959 3097 
z
M 1959 3584 
Q 2709 3584 3137 3096 
Q 3566 2609 3566 1747 
Q 3566 888 3137 398 
Q 2709 -91 1959 -91 
Q 1206 -91 779 398 
Q 353 888 353 1747 
Q 353 2609 779 3096 
Q 1206 3584 1959 3584 
z
" transform="scale(0.015625)"/>
      <path id="DejaVuSans-66" d="M 2375 4863 
L 2375 4384 
L 1825 4384 
Q 1516 4384 1395 4259 
Q 1275 4134 1275 3809 
L 1275 3500 
L 2222 3500 
L 2222 3053 
L 1275 3053 
L 1275 0 
L 697 0 
L 697 3053 
L 147 3053 
L 147 3500 
L 697 3500 
L 697 3744 
Q 697 4328 969 4595 
Q 1241 4863 1831 4863 
L 2375 4863 
z
" transform="scale(0.015625)"/>
      <path id="DejaVuSans-4b" d="M 628 4666 
L 1259 4666 
L 1259 2694 
L 3353 4666 
L 4166 4666 
L 1850 2491 
L 4331 0 
L 3500 0 
L 1259 2247 
L 1259 0 
L 628 0 
L 628 4666 
z
" transform="scale(0.015625)"/>
      <path id="DejaVuSans-4d" d="M 628 4666 
L 1569 4666 
L 2759 1491 
L 3956 4666 
L 4897 4666 
L 4897 0 
L 4281 0 
L 4281 4097 
L 3078 897 
L 2444 897 
L 1241 4097 
L 1241 0 
L 628 0 
L 628 4666 
z
" transform="scale(0.015625)"/>
      <path id="DejaVuSans-73" d="M 2834 3397 
L 2834 2853 
Q 2591 2978 2328 3040 
Q 2066 3103 1784 3103 
Q 1356 3103 1142 2972 
Q 928 2841 928 2578 
Q 928 2378 1081 2264 
Q 1234 2150 1697 2047 
L 1894 2003 
Q 2506 1872 2764 1633 
Q 3022 1394 3022 966 
Q 3022 478 2636 193 
Q 2250 -91 1575 -91 
Q 1294 -91 989 -36 
Q 684 19 347 128 
L 347 722 
Q 666 556 975 473 
Q 1284 391 1588 391 
Q 1994 391 2212 530 
Q 2431 669 2431 922 
Q 2431 1156 2273 1281 
Q 2116 1406 1581 1522 
L 1381 1569 
Q 847 1681 609 1914 
Q 372 2147 372 2553 
Q 372 3047 722 3315 
Q 1072 3584 1716 3584 
Q 2034 3584 2315 3537 
Q 2597 3491 2834 3397 
z
" transform="scale(0.015625)"/>
     </defs>
     <use xlink:href="#DejaVuSans-49"/>
     <use xlink:href="#DejaVuSans-6e" x="29.492188"/>
     <use xlink:href="#DejaVuSans-65" x="92.871094"/>
     <use xlink:href="#DejaVuSans-72" x="154.394531"/>
     <use xlink:href="#DejaVuSans-74" x="195.507812"/>
     <use xlink:href="#DejaVuSans-69" x="234.716797"/>
     <use xlink:href="#DejaVuSans-61" x="262.5"/>
     <use xlink:href="#DejaVuSans-20" x="323.779297"/>
     <use xlink:href="#DejaVuSans-6f" x="355.566406"/>
     <use xlink:href="#DejaVuSans-66" x="416.748047"/>
     <use xlink:href="#DejaVuSans-20" x="451.953125"/>
     <use xlink:href="#DejaVuSans-4b" x="483.740234"/>
     <use xlink:href="#DejaVuSans-4d" x="549.316406"/>
     <use xlink:href="#DejaVuSans-65" x="635.595703"/>
     <use xlink:href="#DejaVuSans-61" x="697.119141"/>
     <use xlink:href="#DejaVuSans-6e" x="758.398438"/>
     <use xlink:href="#DejaVuSans-73" x="821.777344"/>
    </g>
   </g>
   <g id="legend_1">
    <g id="patch_7">
     <path d="M 97 635.8 
L 165.703125 635.8 
Q 167.703125 635.8 167.703125 633.8 
L 167.703125 576.0875 
Q 167.703125 574.0875 165.703125 574.0875 
L 97 574.0875 
Q 95 574.0875 95 576.0875 
L 95 633.8 
Q 95 635.8 97 635.8 
z
" style="fill: #ffffff; opacity: 0.8; stroke: #cccccc; stroke-linejoin: miter"/>
    </g>
    <g id="line2d_21">
     <path d="M 99 582.185938 
L 109 582.185938 
L 119 582.185938 
" style="fill: none; stroke: #1f77b4; stroke-width: 1.5; stroke-linecap: square"/>
    </g>
    <g id="text_14">
     <!-- scratch -->
     <g transform="translate(127 585.685938)scale(0.1 -0.1)">
      <defs>
       <path id="DejaVuSans-63" d="M 3122 3366 
L 3122 2828 
Q 2878 2963 2633 3030 
Q 2388 3097 2138 3097 
Q 1578 3097 1268 2742 
Q 959 2388 959 1747 
Q 959 1106 1268 751 
Q 1578 397 2138 397 
Q 2388 397 2633 464 
Q 2878 531 3122 666 
L 3122 134 
Q 2881 22 2623 -34 
Q 2366 -91 2075 -91 
Q 1284 -91 818 406 
Q 353 903 353 1747 
Q 353 2603 823 3093 
Q 1294 3584 2113 3584 
Q 2378 3584 2631 3529 
Q 2884 3475 3122 3366 
z
" transform="scale(0.015625)"/>
       <path id="DejaVuSans-68" d="M 3513 2113 
L 3513 0 
L 2938 0 
L 2938 2094 
Q 2938 2591 2744 2837 
Q 2550 3084 2163 3084 
Q 1697 3084 1428 2787 
Q 1159 2491 1159 1978 
L 1159 0 
L 581 0 
L 581 4863 
L 1159 4863 
L 1159 2956 
Q 1366 3272 1645 3428 
Q 1925 3584 2291 3584 
Q 2894 3584 3203 3211 
Q 3513 2838 3513 2113 
z
" transform="scale(0.015625)"/>
      </defs>
      <use xlink:href="#DejaVuSans-73"/>
      <use xlink:href="#DejaVuSans-63" x="52.099609"/>
      <use xlink:href="#DejaVuSans-72" x="107.080078"/>
      <use xlink:href="#DejaVuSans-61" x="148.193359"/>
      <use xlink:href="#DejaVuSans-74" x="209.472656"/>
      <use xlink:href="#DejaVuSans-63" x="248.681641"/>
      <use xlink:href="#DejaVuSans-68" x="303.662109"/>
     </g>
    </g>
    <g id="line2d_22">
     <path d="M 99 596.864063 
L 109 596.864063 
L 119 596.864063 
" style="fill: none; stroke: #ff7f0e; stroke-width: 1.5; stroke-linecap: square"/>
    </g>
    <g id="text_15">
     <!-- nested -->
     <g transform="translate(127 600.364063)scale(0.1 -0.1)">
      <defs>
       <path id="DejaVuSans-64" d="M 2906 2969 
L 2906 4863 
L 3481 4863 
L 3481 0 
L 2906 0 
L 2906 525 
Q 2725 213 2448 61 
Q 2172 -91 1784 -91 
Q 1150 -91 751 415 
Q 353 922 353 1747 
Q 353 2572 751 3078 
Q 1150 3584 1784 3584 
Q 2172 3584 2448 3432 
Q 2725 3281 2906 2969 
z
M 947 1747 
Q 947 1113 1208 752 
Q 1469 391 1925 391 
Q 2381 391 2643 752 
Q 2906 1113 2906 1747 
Q 2906 2381 2643 2742 
Q 2381 3103 1925 3103 
Q 1469 3103 1208 2742 
Q 947 2381 947 1747 
z
" transform="scale(0.015625)"/>
      </defs>
      <use xlink:href="#DejaVuSans-6e"/>
      <use xlink:href="#DejaVuSans-65" x="63.378906"/>
      <use xlink:href="#DejaVuSans-73" x="124.902344"/>
      <use xlink:href="#DejaVuSans-74" x="177.001953"/>
      <use xlink:href="#DejaVuSans-65" x="216.210938"/>
      <use xlink:href="#DejaVuSans-64" x="277.734375"/>
     </g>
    </g>
    <g id="line2d_23">
     <path d="M 99 611.542188 
L 109 611.542188 
L 119 611.542188 
" style="fill: none; stroke: #2ca02c; stroke-width: 1.5; stroke-linecap: square"/>
    </g>
    <g id="text_16">
     <!-- flat -->
     <g transform="translate(127 615.042188)scale(0.1 -0.1)">
      <defs>
       <path id="DejaVuSans-6c" d="M 603 4863 
L 1178 4863 
L 1178 0 
L 603 0 
L 603 4863 
z
" transform="scale(0.015625)"/>
      </defs>
      <use xlink:href="#DejaVuSans-66"/>
      <use xlink:href="#DejaVuSans-6c" x="35.205078"/>
      <use xlink:href="#DejaVuSans-61" x="62.988281"/>
      <use xlink:href="#DejaVuSans-74" x="124.267578"/>
     </g>
    </g>
    <g id="line2d_24">
     <path d="M 99 626.220313 
L 109 626.220313 
L 119 626.220313 
" style="fill: none; stroke: #d62728; stroke-width: 1.5; stroke-linecap: square"/>
    </g>
    <g id="text_17">
     <!-- shuffle -->
     <g transform="translate(127 629.720313)scale(0.1 -0.1)">
      <defs>
       <path id="DejaVuSans-75" d="M 544 1381 
L 544 3500 
L 1119 3500 
L 1119 1403 
Q 1119 906 1312 657 
Q 1506 409 1894 409 
Q 2359 409 2629 706 
Q 2900 1003 2900 1516 
L 2900 3500 
L 3475 3500 
L 3475 0 
L 2900 0 
L 2900 538 
Q 2691 219 2414 64 
Q 2138 -91 1772 -91 
Q 1169 -91 856 284 
Q 544 659 544 1381 
z
M 1991 3584 
L 1991 3584 
z
" transform="scale(0.015625)"/>
      </defs>
      <use xlink:href="#DejaVuSans-73"/>
      <use xlink:href="#DejaVuSans-68" x="52.099609"/>
      <use xlink:href="#DejaVuSans-75" x="115.478516"/>
      <use xlink:href="#DejaVuSans-66" x="178.857422"/>
      <use xlink:href="#DejaVuSans-66" x="214.0625"/>
      <use xlink:href="#DejaVuSans-6c" x="249.267578"/>
      <use xlink:href="#DejaVuSans-65" x="277.050781"/>
     </g>
    </g>
   </g>
  </g>
 </g>
 <defs>
  <clipPath id="paca03acb00">
   <rect x="90" y="86.4" width="558" height="554.4"/>
  </clipPath>
 </defs>
</svg>
