<?xml version="1.0" encoding="utf-8" standalone="no"?>
<!DOCTYPE svg PUBLIC "-//W3C//DTD SVG 1.1//EN"
  "http://www.w3.org/Graphics/SVG/1.1/DTD/svg11.dtd">
<svg xmlns:xlink="http://www.w3.org/1999/xlink" width="720pt" height="720pt" viewBox="0 0 720 720" xmlns="http://www.w3.org/2000/svg" version="1.1">
 <metadata>
  <rdf:RDF xmlns:dc="http://purl.org/dc/elements/1.1/" xmlns:cc="http://creativecommons.org/ns#" xmlns:rdf="http://www.w3.org/1999/02/22-rdf-syntax-ns#">
   <cc:Work>
    <dc:type rdf:resource="http://purl.org/dc/dcmitype/StillImage"/>
    <dc:date>2023-12-07T12:59:34.223337</dc:date>
    <dc:format>image/svg+xml</dc:format>
    <dc:creator>
     <cc:Agent>
      <dc:title>Matplotlib v3.5.0, https://matplotlib.org/</dc:title>
     </cc:Agent>
    </dc:creator>
   </cc:Work>
  </rdf:RDF>
 </metadata>
 <defs>
  <style type="text/css">*{stroke-linejoin: round; stroke-linecap: butt}</style>
 </defs>
 <g id="figure_1">
  <g id="patch_1">
   <path d="M 0 720 
L 720 720 
L 720 0 
L 0 0 
z
" style="fill: #ffffff"/>
  </g>
  <g id="axes_1">
   <g id="patch_2">
    <path d="M 90 640.8 
L 648 640.8 
L 648 86.4 
L 90 86.4 
z
" style="fill: #ffffff"/>
   </g>
   <g id="matplotlib.axis_1">
    <g id="xtick_1">
     <g id="line2d_1">
      <defs>
       <path id="m2c1532a41f" d="M 0 0 
L 0 3.5 
" style="stroke: #000000; stroke-width: 0.8"/>
      </defs>
      <g>
       <use xlink:href="#m2c1532a41f" x="115.363636" y="640.8" style="stroke: #000000; stroke-width: 0.8"/>
      </g>
     </g>
     <g id="text_1">
      <!-- 0 -->
      <g transform="translate(112.182386 655.398438)scale(0.1 -0.1)">
       <defs>
        <path id="DejaVuSans-30" d="M 2034 4250 
Q 1547 4250 1301 3770 
Q 1056 3291 1056 2328 
Q 1056 1369 1301 889 
Q 1547 409 2034 409 
Q 2525 409 2770 889 
Q 3016 1369 3016 2328 
Q 3016 3291 2770 3770 
Q 2525 4250 2034 4250 
z
M 2034 4750 
Q 2819 4750 3233 4129 
Q 3647 3509 3647 2328 
Q 3647 1150 3233 529 
Q 2819 -91 2034 -91 
Q 1250 -91 836 529 
Q 422 1150 422 2328 
Q 422 3509 836 4129 
Q 1250 4750 2034 4750 
z
" transform="scale(0.015625)"/>
       </defs>
       <use xlink:href="#DejaVuSans-30"/>
      </g>
     </g>
    </g>
    <g id="xtick_2">
     <g id="line2d_2">
      <g>
       <use xlink:href="#m2c1532a41f" x="179.091366" y="640.8" style="stroke: #000000; stroke-width: 0.8"/>
      </g>
     </g>
     <g id="text_2">
      <!-- 25 -->
      <g transform="translate(172.728866 655.398438)scale(0.1 -0.1)">
       <defs>
        <path id="DejaVuSans-32" d="M 1228 531 
L 3431 531 
L 3431 0 
L 469 0 
L 469 531 
Q 828 903 1448 1529 
Q 2069 2156 2228 2338 
Q 2531 2678 2651 2914 
Q 2772 3150 2772 3378 
Q 2772 3750 2511 3984 
Q 2250 4219 1831 4219 
Q 1534 4219 1204 4116 
Q 875 4013 500 3803 
L 500 4441 
Q 881 4594 1212 4672 
Q 1544 4750 1819 4750 
Q 2544 4750 2975 4387 
Q 3406 4025 3406 3419 
Q 3406 3131 3298 2873 
Q 3191 2616 2906 2266 
Q 2828 2175 2409 1742 
Q 1991 1309 1228 531 
z
" transform="scale(0.015625)"/>
        <path id="DejaVuSans-35" d="M 691 4666 
L 3169 4666 
L 3169 4134 
L 1269 4134 
L 1269 2991 
Q 1406 3038 1543 3061 
Q 1681 3084 1819 3084 
Q 2600 3084 3056 2656 
Q 3513 2228 3513 1497 
Q 3513 744 3044 326 
Q 2575 -91 1722 -91 
Q 1428 -91 1123 -41 
Q 819 9 494 109 
L 494 744 
Q 775 591 1075 516 
Q 1375 441 1709 441 
Q 2250 441 2565 725 
Q 2881 1009 2881 1497 
Q 2881 1984 2565 2268 
Q 2250 2553 1709 2553 
Q 1456 2553 1204 2497 
Q 953 2441 691 2322 
L 691 4666 
z
" transform="scale(0.015625)"/>
       </defs>
       <use xlink:href="#DejaVuSans-32"/>
       <use xlink:href="#DejaVuSans-35" x="63.623047"/>
      </g>
     </g>
    </g>
    <g id="xtick_3">
     <g id="line2d_3">
      <g>
       <use xlink:href="#m2c1532a41f" x="242.819095" y="640.8" style="stroke: #000000; stroke-width: 0.8"/>
      </g>
     </g>
     <g id="text_3">
      <!-- 50 -->
      <g transform="translate(236.456595 655.398438)scale(0.1 -0.1)">
       <use xlink:href="#DejaVuSans-35"/>
       <use xlink:href="#DejaVuSans-30" x="63.623047"/>
      </g>
     </g>
    </g>
    <g id="xtick_4">
     <g id="line2d_4">
      <g>
       <use xlink:href="#m2c1532a41f" x="306.546825" y="640.8" style="stroke: #000000; stroke-width: 0.8"/>
      </g>
     </g>
     <g id="text_4">
      <!-- 75 -->
      <g transform="translate(300.184325 655.398438)scale(0.1 -0.1)">
       <defs>
        <path id="DejaVuSans-37" d="M 525 4666 
L 3525 4666 
L 3525 4397 
L 1831 0 
L 1172 0 
L 2766 4134 
L 525 4134 
L 525 4666 
z
" transform="scale(0.015625)"/>
       </defs>
       <use xlink:href="#DejaVuSans-37"/>
       <use xlink:href="#DejaVuSans-35" x="63.623047"/>
      </g>
     </g>
    </g>
    <g id="xtick_5">
     <g id="line2d_5">
      <g>
       <use xlink:href="#m2c1532a41f" x="370.274555" y="640.8" style="stroke: #000000; stroke-width: 0.8"/>
      </g>
     </g>
     <g id="text_5">
      <!-- 100 -->
      <g transform="translate(360.730805 655.398438)scale(0.1 -0.1)">
       <defs>
        <path id="DejaVuSans-31" d="M 794 531 
L 1825 531 
L 1825 4091 
L 703 3866 
L 703 4441 
L 1819 4666 
L 2450 4666 
L 2450 531 
L 3481 531 
L 3481 0 
L 794 0 
L 794 531 
z
" transform="scale(0.015625)"/>
       </defs>
       <use xlink:href="#DejaVuSans-31"/>
       <use xlink:href="#DejaVuSans-30" x="63.623047"/>
       <use xlink:href="#DejaVuSans-30" x="127.246094"/>
      </g>
     </g>
    </g>
    <g id="xtick_6">
     <g id="line2d_6">
      <g>
       <use xlink:href="#m2c1532a41f" x="434.002284" y="640.8" style="stroke: #000000; stroke-width: 0.8"/>
      </g>
     </g>
     <g id="text_6">
      <!-- 125 -->
      <g transform="translate(424.458534 655.398438)scale(0.1 -0.1)">
       <use xlink:href="#DejaVuSans-31"/>
       <use xlink:href="#DejaVuSans-32" x="63.623047"/>
       <use xlink:href="#DejaVuSans-35" x="127.246094"/>
      </g>
     </g>
    </g>
    <g id="xtick_7">
     <g id="line2d_7">
      <g>
       <use xlink:href="#m2c1532a41f" x="497.730014" y="640.8" style="stroke: #000000; stroke-width: 0.8"/>
      </g>
     </g>
     <g id="text_7">
      <!-- 150 -->
      <g transform="translate(488.186264 655.398438)scale(0.1 -0.1)">
       <use xlink:href="#DejaVuSans-31"/>
       <use xlink:href="#DejaVuSans-35" x="63.623047"/>
       <use xlink:href="#DejaVuSans-30" x="127.246094"/>
      </g>
     </g>
    </g>
    <g id="xtick_8">
     <g id="line2d_8">
      <g>
       <use xlink:href="#m2c1532a41f" x="561.457743" y="640.8" style="stroke: #000000; stroke-width: 0.8"/>
      </g>
     </g>
     <g id="text_8">
      <!-- 175 -->
      <g transform="translate(551.913993 655.398438)scale(0.1 -0.1)">
       <use xlink:href="#DejaVuSans-31"/>
       <use xlink:href="#DejaVuSans-37" x="63.623047"/>
       <use xlink:href="#DejaVuSans-35" x="127.246094"/>
      </g>
     </g>
    </g>
    <g id="xtick_9">
     <g id="line2d_9">
      <g>
       <use xlink:href="#m2c1532a41f" x="625.185473" y="640.8" style="stroke: #000000; stroke-width: 0.8"/>
      </g>
     </g>
     <g id="text_9">
      <!-- 200 -->
      <g transform="translate(615.641723 655.398438)scale(0.1 -0.1)">
       <use xlink:href="#DejaVuSans-32"/>
       <use xlink:href="#DejaVuSans-30" x="63.623047"/>
       <use xlink:href="#DejaVuSans-30" x="127.246094"/>
      </g>
     </g>
    </g>
   </g>
   <g id="matplotlib.axis_2">
    <g id="ytick_1">
     <g id="line2d_10">
      <defs>
       <path id="m68fa015eb9" d="M 0 0 
L -3.5 0 
" style="stroke: #000000; stroke-width: 0.8"/>
      </defs>
      <g>
       <use xlink:href="#m68fa015eb9" x="90" y="640.8" style="stroke: #000000; stroke-width: 0.8"/>
      </g>
     </g>
     <g id="text_10">
      <!-- $\mathdefault{10^{-2}}$ -->
      <g transform="translate(59.5 644.599219)scale(0.1 -0.1)">
       <defs>
        <path id="DejaVuSans-2212" d="M 678 2272 
L 4684 2272 
L 4684 1741 
L 678 1741 
L 678 2272 
z
" transform="scale(0.015625)"/>
       </defs>
       <use xlink:href="#DejaVuSans-31" transform="translate(0 0.765625)"/>
       <use xlink:href="#DejaVuSans-30" transform="translate(63.623047 0.765625)"/>
       <use xlink:href="#DejaVuSans-2212" transform="translate(128.203125 39.046875)scale(0.7)"/>
       <use xlink:href="#DejaVuSans-32" transform="translate(186.855469 39.046875)scale(0.7)"/>
      </g>
     </g>
    </g>
    <g id="ytick_2">
     <g id="line2d_11">
      <g>
       <use xlink:href="#m68fa015eb9" x="90" y="363.6" style="stroke: #000000; stroke-width: 0.8"/>
      </g>
     </g>
     <g id="text_11">
      <!-- $\mathdefault{10^{-1}}$ -->
      <g transform="translate(59.5 367.399219)scale(0.1 -0.1)">
       <use xlink:href="#DejaVuSans-31" transform="translate(0 0.684375)"/>
       <use xlink:href="#DejaVuSans-30" transform="translate(63.623047 0.684375)"/>
       <use xlink:href="#DejaVuSans-2212" transform="translate(128.203125 38.965625)scale(0.7)"/>
       <use xlink:href="#DejaVuSans-31" transform="translate(186.855469 38.965625)scale(0.7)"/>
      </g>
     </g>
    </g>
    <g id="ytick_3">
     <g id="line2d_12">
      <g>
       <use xlink:href="#m68fa015eb9" x="90" y="86.4" style="stroke: #000000; stroke-width: 0.8"/>
      </g>
     </g>
     <g id="text_12">
      <!-- $\mathdefault{10^{0}}$ -->
      <g transform="translate(65.4 90.199219)scale(0.1 -0.1)">
       <use xlink:href="#DejaVuSans-31" transform="translate(0 0.765625)"/>
       <use xlink:href="#DejaVuSans-30" transform="translate(63.623047 0.765625)"/>
       <use xlink:href="#DejaVuSans-30" transform="translate(128.203125 39.046875)scale(0.7)"/>
      </g>
     </g>
    </g>
    <g id="ytick_4">
     <g id="line2d_13">
      <defs>
       <path id="mbd2e91071c" d="M 0 0 
L -2 0 
" style="stroke: #000000; stroke-width: 0.6"/>
      </defs>
      <g>
       <use xlink:href="#mbd2e91071c" x="90" y="557.354485" style="stroke: #000000; stroke-width: 0.6"/>
      </g>
     </g>
    </g>
    <g id="ytick_5">
     <g id="line2d_14">
      <g>
       <use xlink:href="#mbd2e91071c" x="90" y="508.541988" style="stroke: #000000; stroke-width: 0.6"/>
      </g>
     </g>
    </g>
    <g id="ytick_6">
     <g id="line2d_15">
      <g>
       <use xlink:href="#mbd2e91071c" x="90" y="473.90897" style="stroke: #000000; stroke-width: 0.6"/>
      </g>
     </g>
    </g>
    <g id="ytick_7">
     <g id="line2d_16">
      <g>
       <use xlink:href="#mbd2e91071c" x="90" y="447.045515" style="stroke: #000000; stroke-width: 0.6"/>
      </g>
     </g>
    </g>
    <g id="ytick_8">
     <g id="line2d_17">
      <g>
       <use xlink:href="#mbd2e91071c" x="90" y="425.096473" style="stroke: #000000; stroke-width: 0.6"/>
      </g>
     </g>
    </g>
    <g id="ytick_9">
     <g id="line2d_18">
      <g>
       <use xlink:href="#mbd2e91071c" x="90" y="406.538823" style="stroke: #000000; stroke-width: 0.6"/>
      </g>
     </g>
    </g>
    <g id="ytick_10">
     <g id="line2d_19">
      <g>
       <use xlink:href="#mbd2e91071c" x="90" y="390.463456" style="stroke: #000000; stroke-width: 0.6"/>
      </g>
     </g>
    </g>
    <g id="ytick_11">
     <g id="line2d_20">
      <g>
       <use xlink:href="#mbd2e91071c" x="90" y="376.283976" style="stroke: #000000; stroke-width: 0.6"/>
      </g>
     </g>
    </g>
    <g id="ytick_12">
     <g id="line2d_21">
      <g>
       <use xlink:href="#mbd2e91071c" x="90" y="280.154485" style="stroke: #000000; stroke-width: 0.6"/>
      </g>
     </g>
    </g>
    <g id="ytick_13">
     <g id="line2d_22">
      <g>
       <use xlink:href="#mbd2e91071c" x="90" y="231.341988" style="stroke: #000000; stroke-width: 0.6"/>
      </g>
     </g>
    </g>
    <g id="ytick_14">
     <g id="line2d_23">
      <g>
       <use xlink:href="#mbd2e91071c" x="90" y="196.70897" style="stroke: #000000; stroke-width: 0.6"/>
      </g>
     </g>
    </g>
    <g id="ytick_15">
     <g id="line2d_24">
      <g>
       <use xlink:href="#mbd2e91071c" x="90" y="169.845515" style="stroke: #000000; stroke-width: 0.6"/>
      </g>
     </g>
    </g>
    <g id="ytick_16">
     <g id="line2d_25">
      <g>
       <use xlink:href="#mbd2e91071c" x="90" y="147.896473" style="stroke: #000000; stroke-width: 0.6"/>
      </g>
     </g>
    </g>
    <g id="ytick_17">
     <g id="line2d_26">
      <g>
       <use xlink:href="#mbd2e91071c" x="90" y="129.338823" style="stroke: #000000; stroke-width: 0.6"/>
      </g>
     </g>
    </g>
    <g id="ytick_18">
     <g id="line2d_27">
      <g>
       <use xlink:href="#mbd2e91071c" x="90" y="113.263456" style="stroke: #000000; stroke-width: 0.6"/>
      </g>
     </g>
    </g>
    <g id="ytick_19">
     <g id="line2d_28">
      <g>
       <use xlink:href="#mbd2e91071c" x="90" y="99.083976" style="stroke: #000000; stroke-width: 0.6"/>
      </g>
     </g>
    </g>
   </g>
   <g id="line2d_29">
    <path d="M 115.363636 86.4 
L 117.912746 113.562653 
L 120.461855 115.694053 
L 123.010964 132.530688 
L 125.560073 134.305081 
L 128.109182 141.064707 
L 130.658291 144.717208 
L 133.207401 149.70559 
L 135.75651 151.109857 
L 138.305619 152.31848 
L 140.854728 155.579513 
L 143.403837 157.47939 
L 145.952947 158.839539 
L 148.502056 161.160552 
L 151.051165 162.67618 
L 153.600274 163.580423 
L 156.149383 164.349697 
L 158.698492 164.886517 
L 163.796711 167.427927 
L 168.894929 169.514916 
L 171.444038 171.986244 
L 176.542257 173.529476 
L 179.091366 174.610152 
L 181.640475 174.802215 
L 184.189584 176.166891 
L 186.738693 176.884903 
L 189.287803 177.81416 
L 191.836912 178.578538 
L 194.386021 178.883182 
L 196.93513 179.40915 
L 199.484239 180.65273 
L 202.033349 181.305428 
L 204.582458 183.362233 
L 207.131567 184.631953 
L 209.680676 185.422699 
L 212.229785 187.161313 
L 219.877113 187.952991 
L 222.426222 188.613917 
L 224.975331 190.047314 
L 227.52444 191.023593 
L 230.07355 192.490911 
L 232.622659 192.95349 
L 235.171768 194.486476 
L 237.720877 195.147098 
L 240.269986 196.170936 
L 242.819095 197.345888 
L 245.368205 197.700501 
L 247.917314 198.876668 
L 250.466423 199.754458 
L 253.015532 201.613237 
L 255.564641 201.848345 
L 258.113751 202.406598 
L 260.66286 202.753435 
L 263.211969 203.719486 
L 265.761078 204.564134 
L 268.310187 205.135107 
L 270.859296 205.566421 
L 273.408406 206.160407 
L 275.957515 206.872154 
L 278.506624 207.88737 
L 283.604842 209.007801 
L 286.153952 210.0631 
L 288.703061 210.458133 
L 291.25217 210.673657 
L 293.801279 211.30954 
L 296.350388 211.631227 
L 298.899497 212.146758 
L 303.997716 212.910943 
L 306.546825 213.578885 
L 311.645043 214.181809 
L 314.194153 214.75544 
L 316.743262 214.846786 
L 319.292371 215.771809 
L 321.84148 216.240903 
L 324.390589 216.359516 
L 326.939698 216.716375 
L 329.488808 216.854309 
L 337.136135 217.989545 
L 339.685244 218.538648 
L 342.234354 218.971253 
L 354.979899 220.348174 
L 360.078118 220.878033 
L 362.627227 220.920262 
L 365.176336 221.168835 
L 367.725445 221.648766 
L 370.274555 221.765398 
L 372.823664 222.014474 
L 375.372773 222.507041 
L 377.921882 223.453261 
L 383.020101 223.681087 
L 390.667428 224.565523 
L 393.216537 224.910404 
L 395.765646 224.967319 
L 398.314756 225.278073 
L 403.412974 225.717429 
L 405.962083 226.0057 
L 408.511192 226.422522 
L 411.060302 226.472932 
L 413.609411 226.698013 
L 416.15852 227.191166 
L 418.707629 227.294549 
L 421.256738 227.649877 
L 423.805847 227.670187 
L 428.904066 228.197345 
L 431.453175 228.28582 
L 434.002284 228.486227 
L 436.551393 229.008872 
L 439.100503 229.144874 
L 441.649612 229.631961 
L 444.198721 229.833939 
L 446.74783 230.271293 
L 456.944267 230.825875 
L 459.493376 231.101602 
L 462.042485 231.2395 
L 464.591594 231.530406 
L 467.140704 232.062435 
L 472.238922 232.282493 
L 479.886249 232.823033 
L 484.984468 233.477955 
L 490.082686 233.959437 
L 495.180905 234.499351 
L 530.868433 237.05794 
L 533.417542 237.135957 
L 535.966651 237.512525 
L 543.613979 238.242019 
L 548.712197 238.487675 
L 551.261307 238.841999 
L 553.810416 239.038796 
L 556.359525 239.092647 
L 561.457743 239.594155 
L 566.555962 240.062641 
L 571.65418 240.429892 
L 574.203289 240.790983 
L 579.301508 241.084402 
L 586.948835 241.894117 
L 589.497944 241.944585 
L 597.145272 242.68135 
L 602.24349 242.875882 
L 607.341709 243.646902 
L 614.989036 244.38946 
L 620.087254 244.533759 
L 622.636364 244.969973 
L 622.636364 244.969973 
" clip-path="url(#p574779c614)" style="fill: none; stroke: #1f77b4; stroke-width: 1.5; stroke-linecap: square"/>
   </g>
   <g id="line2d_30">
    <path d="M 115.363636 86.4 
L 117.912746 255.278699 
L 120.461855 267.276923 
L 123.010964 278.220397 
L 125.560073 286.268564 
L 128.109182 292.185141 
L 130.658291 300.325073 
L 133.207401 306.488218 
L 135.75651 311.431405 
L 138.305619 312.972043 
L 140.854728 318.184938 
L 143.403837 322.731447 
L 145.952947 328.518012 
L 148.502056 330.131171 
L 151.051165 333.931869 
L 156.149383 336.954564 
L 158.698492 339.359725 
L 161.247602 340.504812 
L 163.796711 343.264423 
L 166.34582 344.163834 
L 168.894929 346.396661 
L 171.444038 350.910388 
L 173.993148 352.776704 
L 176.542257 354.354334 
L 179.091366 355.174607 
L 181.640475 356.69023 
L 184.189584 357.352567 
L 186.738693 359.059926 
L 189.287803 361.488955 
L 191.836912 362.623924 
L 194.386021 363.43252 
L 196.93513 366.495724 
L 199.484239 366.859146 
L 202.033349 367.37882 
L 204.582458 368.681174 
L 207.131567 369.781184 
L 209.680676 373.669645 
L 212.229785 374.358456 
L 214.778894 375.209176 
L 217.328004 376.732883 
L 219.877113 377.056546 
L 222.426222 378.431005 
L 224.975331 380.204233 
L 227.52444 381.600297 
L 230.07355 383.43982 
L 232.622659 383.587717 
L 235.171768 384.828074 
L 237.720877 386.71047 
L 240.269986 389.545164 
L 242.819095 390.350843 
L 245.368205 391.447769 
L 247.917314 392.912908 
L 250.466423 393.965464 
L 253.015532 395.588621 
L 255.564641 395.942723 
L 258.113751 396.805318 
L 260.66286 398.616825 
L 265.761078 399.391399 
L 268.310187 400.088969 
L 270.859296 401.160563 
L 273.408406 402.790172 
L 275.957515 403.845189 
L 278.506624 404.663733 
L 281.055733 406.211255 
L 286.153952 407.668341 
L 288.703061 408.652817 
L 291.25217 410.405131 
L 296.350388 411.330614 
L 298.899497 412.569389 
L 301.448607 413.325463 
L 303.997716 414.428947 
L 306.546825 415.405679 
L 309.095934 416.019039 
L 311.645043 416.763387 
L 314.194153 416.976932 
L 316.743262 418.525443 
L 319.292371 419.839496 
L 321.84148 420.22774 
L 324.390589 420.315405 
L 326.939698 421.03052 
L 329.488808 422.139837 
L 332.037917 423.441861 
L 334.587026 423.675318 
L 337.136135 424.624121 
L 339.685244 425.303468 
L 342.234354 425.44813 
L 344.783463 426.825087 
L 349.881681 427.626209 
L 352.43079 429.105782 
L 354.979899 429.706157 
L 357.529009 430.111636 
L 360.078118 430.705197 
L 362.627227 431.096005 
L 365.176336 432.465113 
L 367.725445 433.250482 
L 372.823664 434.103356 
L 375.372773 434.542555 
L 377.921882 435.25123 
L 383.020101 436.111814 
L 385.56921 436.832666 
L 388.118319 437.283675 
L 390.667428 438.231818 
L 393.216537 438.849693 
L 395.765646 439.107746 
L 398.314756 439.756163 
L 403.412974 440.461723 
L 405.962083 441.321138 
L 408.511192 442.517733 
L 411.060302 443.119474 
L 413.609411 444.032736 
L 416.15852 444.537061 
L 418.707629 444.74767 
L 421.256738 445.709672 
L 423.805847 446.123936 
L 426.354957 446.232338 
L 428.904066 446.71638 
L 431.453175 447.749502 
L 436.551393 448.498041 
L 444.198721 450.569754 
L 446.74783 450.740676 
L 449.296939 451.174155 
L 451.846048 451.78375 
L 454.395158 453.024657 
L 459.493376 453.78309 
L 462.042485 454.48069 
L 464.591594 454.845658 
L 469.689813 455.122786 
L 472.238922 456.810387 
L 474.788031 456.973654 
L 477.33714 458.003581 
L 484.984468 458.962829 
L 487.533577 459.486191 
L 492.631795 460.97469 
L 495.180905 461.296394 
L 497.730014 462.16409 
L 500.279123 462.685254 
L 502.828232 463.471605 
L 505.377341 463.984317 
L 507.92645 464.692372 
L 510.47556 464.792468 
L 520.671996 466.898895 
L 523.221106 467.098301 
L 525.770215 467.73316 
L 528.319324 468.776759 
L 530.868433 469.492073 
L 533.417542 469.713526 
L 535.966651 470.369627 
L 538.515761 471.316858 
L 541.06487 471.642329 
L 546.163088 472.611845 
L 548.712197 472.77788 
L 551.261307 473.344604 
L 556.359525 474.072025 
L 561.457743 474.954431 
L 566.555962 476.08323 
L 571.65418 476.775497 
L 579.301508 479.102984 
L 581.850617 480.431493 
L 584.399726 480.505041 
L 589.497944 481.096526 
L 592.047053 481.472645 
L 594.596163 482.108107 
L 597.145272 482.979023 
L 599.694381 483.233201 
L 602.24349 483.91513 
L 604.792599 484.460617 
L 607.341709 484.617438 
L 609.890818 484.887433 
L 614.989036 485.889362 
L 617.538145 486.461633 
L 620.087254 486.731398 
L 622.636364 487.57556 
L 622.636364 487.57556 
" clip-path="url(#p574779c614)" style="fill: none; stroke: #ff7f0e; stroke-width: 1.5; stroke-linecap: square"/>
   </g>
   <g id="line2d_31">
    <path d="M 115.363636 86.4 
L 117.912746 199.216216 
L 120.461855 223.431892 
L 123.010964 233.395204 
L 125.560073 239.526753 
L 128.109182 242.80821 
L 133.207401 263.044507 
L 135.75651 268.758861 
L 138.305619 273.062182 
L 143.403837 278.0427 
L 145.952947 280.023779 
L 148.502056 285.673969 
L 151.051165 287.2993 
L 153.600274 288.744991 
L 156.149383 294.721947 
L 158.698492 295.426762 
L 161.247602 297.220771 
L 163.796711 299.548763 
L 168.894929 305.655071 
L 171.444038 307.723766 
L 173.993148 308.788835 
L 176.542257 311.583175 
L 179.091366 312.745508 
L 181.640475 316.771763 
L 184.189584 318.859973 
L 186.738693 319.106813 
L 189.287803 323.034047 
L 191.836912 325.462633 
L 194.386021 326.830424 
L 196.93513 327.296292 
L 199.484239 330.133603 
L 202.033349 331.221245 
L 204.582458 331.804419 
L 207.131567 333.37639 
L 209.680676 338.42914 
L 212.229785 339.307323 
L 214.778894 340.830952 
L 217.328004 341.698075 
L 219.877113 342.986937 
L 222.426222 344.105721 
L 224.975331 347.846504 
L 227.52444 348.059991 
L 230.07355 349.166561 
L 232.622659 351.388117 
L 235.171768 351.738056 
L 240.269986 353.584487 
L 242.819095 356.063284 
L 250.466423 358.692813 
L 253.015532 361.559634 
L 255.564641 361.747911 
L 260.66286 364.205244 
L 263.211969 365.993691 
L 265.761078 367.971611 
L 268.310187 369.032045 
L 270.859296 370.285177 
L 273.408406 372.098634 
L 275.957515 373.766053 
L 278.506624 374.736734 
L 281.055733 375.916604 
L 286.153952 377.907928 
L 288.703061 379.118542 
L 291.25217 379.882512 
L 293.801279 381.94571 
L 296.350388 382.554808 
L 298.899497 382.913388 
L 303.997716 384.461364 
L 306.546825 385.723854 
L 311.645043 387.762803 
L 314.194153 388.032766 
L 316.743262 389.888466 
L 319.292371 390.498074 
L 321.84148 391.379761 
L 324.390589 392.008072 
L 326.939698 392.885267 
L 332.037917 393.43094 
L 337.136135 395.872246 
L 339.685244 396.13408 
L 342.234354 397.663187 
L 344.783463 397.822624 
L 347.332572 398.15253 
L 349.881681 399.127561 
L 352.43079 400.882933 
L 354.979899 401.121811 
L 357.529009 401.934293 
L 362.627227 402.512443 
L 365.176336 403.074146 
L 367.725445 404.4992 
L 370.274555 404.645076 
L 372.823664 405.406653 
L 375.372773 405.953324 
L 377.921882 406.962067 
L 380.470991 407.04892 
L 383.020101 407.90211 
L 385.56921 408.567705 
L 388.118319 408.728019 
L 390.667428 409.254575 
L 393.216537 410.488493 
L 395.765646 410.633423 
L 398.314756 410.912618 
L 400.863865 411.762633 
L 403.412974 411.954761 
L 405.962083 412.752326 
L 408.511192 413.122082 
L 413.609411 414.828698 
L 416.15852 415.207693 
L 418.707629 415.951487 
L 423.805847 416.543439 
L 426.354957 416.666464 
L 428.904066 417.328139 
L 431.453175 417.831894 
L 434.002284 418.838478 
L 436.551393 419.623046 
L 441.649612 420.682296 
L 444.198721 421.66399 
L 449.296939 422.535678 
L 454.395158 423.52444 
L 456.944267 423.614599 
L 459.493376 424.515901 
L 462.042485 425.256651 
L 464.591594 425.520365 
L 467.140704 426.160038 
L 469.689813 426.218811 
L 472.238922 427.045694 
L 474.788031 427.149615 
L 477.33714 427.679387 
L 482.435359 429.005866 
L 484.984468 429.648188 
L 487.533577 429.705443 
L 490.082686 430.247763 
L 492.631795 431.092061 
L 497.730014 431.74809 
L 500.279123 432.773796 
L 502.828232 433.583964 
L 505.377341 433.758586 
L 510.47556 434.909358 
L 513.024669 435.253572 
L 515.573778 435.954809 
L 520.671996 436.987421 
L 523.221106 437.129885 
L 525.770215 437.755135 
L 528.319324 438.557197 
L 530.868433 438.964383 
L 533.417542 439.197125 
L 535.966651 439.979547 
L 538.515761 440.579312 
L 546.163088 441.385645 
L 548.712197 442.448577 
L 553.810416 443.592957 
L 558.908634 444.049192 
L 561.457743 444.440488 
L 566.555962 445.593392 
L 571.65418 446.960127 
L 576.752398 447.211913 
L 579.301508 448.132475 
L 581.850617 448.526578 
L 584.399726 449.039912 
L 586.948835 449.365053 
L 589.497944 449.804206 
L 592.047053 449.855216 
L 599.694381 452.3105 
L 602.24349 452.414679 
L 604.792599 452.953849 
L 607.341709 453.668291 
L 609.890818 454.202475 
L 612.439927 454.460446 
L 614.989036 455.204451 
L 617.538145 455.392074 
L 622.636364 456.648758 
L 622.636364 456.648758 
" clip-path="url(#p574779c614)" style="fill: none; stroke: #2ca02c; stroke-width: 1.5; stroke-linecap: square"/>
   </g>
   <g id="line2d_32">
    <path d="M 115.363636 86.4 
L 117.912746 230.367107 
L 120.461855 241.777411 
L 125.560073 265.813022 
L 128.109182 266.391778 
L 130.658291 277.557332 
L 133.207401 284.932873 
L 138.305619 294.726978 
L 140.854728 296.751429 
L 143.403837 299.04046 
L 145.952947 303.269302 
L 148.502056 304.631298 
L 151.051165 305.615391 
L 153.600274 307.633036 
L 156.149383 309.816214 
L 158.698492 311.842641 
L 161.247602 313.02133 
L 163.796711 317.567262 
L 166.34582 318.675085 
L 168.894929 320.16035 
L 171.444038 323.383333 
L 173.993148 325.296141 
L 176.542257 325.867041 
L 179.091366 326.757816 
L 184.189584 329.925724 
L 186.738693 331.260774 
L 189.287803 331.914725 
L 191.836912 333.435411 
L 196.93513 334.858733 
L 199.484239 336.00287 
L 202.033349 336.82582 
L 204.582458 338.43331 
L 207.131567 338.981814 
L 209.680676 340.456002 
L 212.229785 341.264429 
L 214.778894 341.737675 
L 217.328004 342.690508 
L 219.877113 344.332326 
L 222.426222 344.712312 
L 224.975331 345.669 
L 227.52444 346.858852 
L 230.07355 347.102443 
L 232.622659 348.69774 
L 235.171768 349.386604 
L 237.720877 349.875894 
L 242.819095 352.024147 
L 247.917314 353.770879 
L 255.564641 355.119556 
L 258.113751 355.850744 
L 260.66286 356.153804 
L 263.211969 356.31774 
L 265.761078 357.211984 
L 268.310187 357.675001 
L 270.859296 358.828034 
L 273.408406 359.666493 
L 275.957515 359.723177 
L 278.506624 360.84647 
L 281.055733 361.527035 
L 286.153952 362.093025 
L 293.801279 363.303232 
L 296.350388 363.797058 
L 298.899497 364.842817 
L 301.448607 365.461456 
L 303.997716 365.799474 
L 306.546825 366.650068 
L 311.645043 367.419514 
L 316.743262 367.829694 
L 319.292371 369.063634 
L 326.939698 370.124892 
L 332.037917 371.422357 
L 334.587026 371.704592 
L 337.136135 372.426812 
L 339.685244 372.755955 
L 342.234354 372.952827 
L 344.783463 373.92883 
L 347.332572 374.510006 
L 349.881681 374.699451 
L 352.43079 375.193917 
L 357.529009 375.742219 
L 360.078118 376.296868 
L 362.627227 376.399584 
L 367.725445 377.591724 
L 370.274555 378.470294 
L 372.823664 378.672455 
L 375.372773 379.126032 
L 377.921882 379.249126 
L 380.470991 380.173956 
L 383.020101 380.418549 
L 385.56921 380.834904 
L 390.667428 381.444365 
L 393.216537 381.817626 
L 395.765646 381.94103 
L 398.314756 382.831206 
L 400.863865 383.25271 
L 403.412974 383.402439 
L 405.962083 384.100554 
L 408.511192 384.402648 
L 411.060302 384.987071 
L 416.15852 385.318674 
L 418.707629 386.19751 
L 423.805847 386.617967 
L 426.354957 387.437375 
L 428.904066 387.673826 
L 431.453175 388.189751 
L 434.002284 388.590531 
L 441.649612 389.031642 
L 444.198721 389.795362 
L 446.74783 390.039523 
L 449.296939 390.427137 
L 451.846048 390.508583 
L 454.395158 391.164116 
L 459.493376 391.88698 
L 462.042485 392.354129 
L 472.238922 393.811132 
L 477.33714 394.95942 
L 479.886249 395.088456 
L 482.435359 395.583766 
L 484.984468 395.698354 
L 490.082686 396.51179 
L 492.631795 397.376966 
L 497.730014 397.638205 
L 500.279123 397.841182 
L 502.828232 398.328438 
L 505.377341 398.597606 
L 507.92645 399.399549 
L 510.47556 399.47402 
L 513.024669 399.826326 
L 515.573778 400.013778 
L 523.221106 401.36767 
L 525.770215 401.549462 
L 528.319324 402.21247 
L 533.417542 402.673028 
L 535.966651 403.143376 
L 541.06487 403.696787 
L 543.613979 404.396505 
L 546.163088 404.720062 
L 548.712197 404.776468 
L 551.261307 405.408036 
L 553.810416 405.500609 
L 556.359525 405.914923 
L 561.457743 406.275984 
L 564.006852 406.727689 
L 566.555962 407.02769 
L 571.65418 408.349472 
L 574.203289 408.573205 
L 576.752398 408.59063 
L 579.301508 409.098271 
L 584.399726 409.752329 
L 586.948835 409.938624 
L 592.047053 410.522103 
L 597.145272 411.467498 
L 599.694381 411.619546 
L 602.24349 412.04143 
L 604.792599 412.943501 
L 607.341709 413.489176 
L 609.890818 413.856304 
L 614.989036 414.337767 
L 617.538145 414.814808 
L 620.087254 414.949873 
L 622.636364 415.371946 
L 622.636364 415.371946 
" clip-path="url(#p574779c614)" style="fill: none; stroke: #d62728; stroke-width: 1.5; stroke-linecap: square"/>
   </g>
   <g id="patch_3">
    <path d="M 90 640.8 
L 90 86.4 
" style="fill: none; stroke: #000000; stroke-width: 0.8; stroke-linejoin: miter; stroke-linecap: square"/>
   </g>
   <g id="patch_4">
    <path d="M 648 640.8 
L 648 86.4 
" style="fill: none; stroke: #000000; stroke-width: 0.8; stroke-linejoin: miter; stroke-linecap: square"/>
   </g>
   <g id="patch_5">
    <path d="M 90 640.8 
L 648 640.8 
" style="fill: none; stroke: #000000; stroke-width: 0.8; stroke-linejoin: miter; stroke-linecap: square"/>
   </g>
   <g id="patch_6">
    <path d="M 90 86.4 
L 648 86.4 
" style="fill: none; stroke: #000000; stroke-width: 0.8; stroke-linejoin: miter; stroke-linecap: square"/>
   </g>
   <g id="text_13">
    <!-- Spectrum of covariation matrix -->
    <g transform="translate(275.361562 80.4)scale(0.12 -0.12)">
     <defs>
      <path id="DejaVuSans-53" d="M 3425 4513 
L 3425 3897 
Q 3066 4069 2747 4153 
Q 2428 4238 2131 4238 
Q 1616 4238 1336 4038 
Q 1056 3838 1056 3469 
Q 1056 3159 1242 3001 
Q 1428 2844 1947 2747 
L 2328 2669 
Q 3034 2534 3370 2195 
Q 3706 1856 3706 1288 
Q 3706 609 3251 259 
Q 2797 -91 1919 -91 
Q 1588 -91 1214 -16 
Q 841 59 441 206 
L 441 856 
Q 825 641 1194 531 
Q 1563 422 1919 422 
Q 2459 422 2753 634 
Q 3047 847 3047 1241 
Q 3047 1584 2836 1778 
Q 2625 1972 2144 2069 
L 1759 2144 
Q 1053 2284 737 2584 
Q 422 2884 422 3419 
Q 422 4038 858 4394 
Q 1294 4750 2059 4750 
Q 2388 4750 2728 4690 
Q 3069 4631 3425 4513 
z
" transform="scale(0.015625)"/>
      <path id="DejaVuSans-70" d="M 1159 525 
L 1159 -1331 
L 581 -1331 
L 581 3500 
L 1159 3500 
L 1159 2969 
Q 1341 3281 1617 3432 
Q 1894 3584 2278 3584 
Q 2916 3584 3314 3078 
Q 3713 2572 3713 1747 
Q 3713 922 3314 415 
Q 2916 -91 2278 -91 
Q 1894 -91 1617 61 
Q 1341 213 1159 525 
z
M 3116 1747 
Q 3116 2381 2855 2742 
Q 2594 3103 2138 3103 
Q 1681 3103 1420 2742 
Q 1159 2381 1159 1747 
Q 1159 1113 1420 752 
Q 1681 391 2138 391 
Q 2594 391 2855 752 
Q 3116 1113 3116 1747 
z
" transform="scale(0.015625)"/>
      <path id="DejaVuSans-65" d="M 3597 1894 
L 3597 1613 
L 953 1613 
Q 991 1019 1311 708 
Q 1631 397 2203 397 
Q 2534 397 2845 478 
Q 3156 559 3463 722 
L 3463 178 
Q 3153 47 2828 -22 
Q 2503 -91 2169 -91 
Q 1331 -91 842 396 
Q 353 884 353 1716 
Q 353 2575 817 3079 
Q 1281 3584 2069 3584 
Q 2775 3584 3186 3129 
Q 3597 2675 3597 1894 
z
M 3022 2063 
Q 3016 2534 2758 2815 
Q 2500 3097 2075 3097 
Q 1594 3097 1305 2825 
Q 1016 2553 972 2059 
L 3022 2063 
z
" transform="scale(0.015625)"/>
      <path id="DejaVuSans-63" d="M 3122 3366 
L 3122 2828 
Q 2878 2963 2633 3030 
Q 2388 3097 2138 3097 
Q 1578 3097 1268 2742 
Q 959 2388 959 1747 
Q 959 1106 1268 751 
Q 1578 397 2138 397 
Q 2388 397 2633 464 
Q 2878 531 3122 666 
L 3122 134 
Q 2881 22 2623 -34 
Q 2366 -91 2075 -91 
Q 1284 -91 818 406 
Q 353 903 353 1747 
Q 353 2603 823 3093 
Q 1294 3584 2113 3584 
Q 2378 3584 2631 3529 
Q 2884 3475 3122 3366 
z
" transform="scale(0.015625)"/>
      <path id="DejaVuSans-74" d="M 1172 4494 
L 1172 3500 
L 2356 3500 
L 2356 3053 
L 1172 3053 
L 1172 1153 
Q 1172 725 1289 603 
Q 1406 481 1766 481 
L 2356 481 
L 2356 0 
L 1766 0 
Q 1100 0 847 248 
Q 594 497 594 1153 
L 594 3053 
L 172 3053 
L 172 3500 
L 594 3500 
L 594 4494 
L 1172 4494 
z
" transform="scale(0.015625)"/>
      <path id="DejaVuSans-72" d="M 2631 2963 
Q 2534 3019 2420 3045 
Q 2306 3072 2169 3072 
Q 1681 3072 1420 2755 
Q 1159 2438 1159 1844 
L 1159 0 
L 581 0 
L 581 3500 
L 1159 3500 
L 1159 2956 
Q 1341 3275 1631 3429 
Q 1922 3584 2338 3584 
Q 2397 3584 2469 3576 
Q 2541 3569 2628 3553 
L 2631 2963 
z
" transform="scale(0.015625)"/>
      <path id="DejaVuSans-75" d="M 544 1381 
L 544 3500 
L 1119 3500 
L 1119 1403 
Q 1119 906 1312 657 
Q 1506 409 1894 409 
Q 2359 409 2629 706 
Q 2900 1003 2900 1516 
L 2900 3500 
L 3475 3500 
L 3475 0 
L 2900 0 
L 2900 538 
Q 2691 219 2414 64 
Q 2138 -91 1772 -91 
Q 1169 -91 856 284 
Q 544 659 544 1381 
z
M 1991 3584 
L 1991 3584 
z
" transform="scale(0.015625)"/>
      <path id="DejaVuSans-6d" d="M 3328 2828 
Q 3544 3216 3844 3400 
Q 4144 3584 4550 3584 
Q 5097 3584 5394 3201 
Q 5691 2819 5691 2113 
L 5691 0 
L 5113 0 
L 5113 2094 
Q 5113 2597 4934 2840 
Q 4756 3084 4391 3084 
Q 3944 3084 3684 2787 
Q 3425 2491 3425 1978 
L 3425 0 
L 2847 0 
L 2847 2094 
Q 2847 2600 2669 2842 
Q 2491 3084 2119 3084 
Q 1678 3084 1418 2786 
Q 1159 2488 1159 1978 
L 1159 0 
L 581 0 
L 581 3500 
L 1159 3500 
L 1159 2956 
Q 1356 3278 1631 3431 
Q 1906 3584 2284 3584 
Q 2666 3584 2933 3390 
Q 3200 3197 3328 2828 
z
" transform="scale(0.015625)"/>
      <path id="DejaVuSans-20" transform="scale(0.015625)"/>
      <path id="DejaVuSans-6f" d="M 1959 3097 
Q 1497 3097 1228 2736 
Q 959 2375 959 1747 
Q 959 1119 1226 758 
Q 1494 397 1959 397 
Q 2419 397 2687 759 
Q 2956 1122 2956 1747 
Q 2956 2369 2687 2733 
Q 2419 3097 1959 3097 
z
M 1959 3584 
Q 2709 3584 3137 3096 
Q 3566 2609 3566 1747 
Q 3566 888 3137 398 
Q 2709 -91 1959 -91 
Q 1206 -91 779 398 
Q 353 888 353 1747 
Q 353 2609 779 3096 
Q 1206 3584 1959 3584 
z
" transform="scale(0.015625)"/>
      <path id="DejaVuSans-66" d="M 2375 4863 
L 2375 4384 
L 1825 4384 
Q 1516 4384 1395 4259 
Q 1275 4134 1275 3809 
L 1275 3500 
L 2222 3500 
L 2222 3053 
L 1275 3053 
L 1275 0 
L 697 0 
L 697 3053 
L 147 3053 
L 147 3500 
L 697 3500 
L 697 3744 
Q 697 4328 969 4595 
Q 1241 4863 1831 4863 
L 2375 4863 
z
" transform="scale(0.015625)"/>
      <path id="DejaVuSans-76" d="M 191 3500 
L 800 3500 
L 1894 563 
L 2988 3500 
L 3597 3500 
L 2284 0 
L 1503 0 
L 191 3500 
z
" transform="scale(0.015625)"/>
      <path id="DejaVuSans-61" d="M 2194 1759 
Q 1497 1759 1228 1600 
Q 959 1441 959 1056 
Q 959 750 1161 570 
Q 1363 391 1709 391 
Q 2188 391 2477 730 
Q 2766 1069 2766 1631 
L 2766 1759 
L 2194 1759 
z
M 3341 1997 
L 3341 0 
L 2766 0 
L 2766 531 
Q 2569 213 2275 61 
Q 1981 -91 1556 -91 
Q 1019 -91 701 211 
Q 384 513 384 1019 
Q 384 1609 779 1909 
Q 1175 2209 1959 2209 
L 2766 2209 
L 2766 2266 
Q 2766 2663 2505 2880 
Q 2244 3097 1772 3097 
Q 1472 3097 1187 3025 
Q 903 2953 641 2809 
L 641 3341 
Q 956 3463 1253 3523 
Q 1550 3584 1831 3584 
Q 2591 3584 2966 3190 
Q 3341 2797 3341 1997 
z
" transform="scale(0.015625)"/>
      <path id="DejaVuSans-69" d="M 603 3500 
L 1178 3500 
L 1178 0 
L 603 0 
L 603 3500 
z
M 603 4863 
L 1178 4863 
L 1178 4134 
L 603 4134 
L 603 4863 
z
" transform="scale(0.015625)"/>
      <path id="DejaVuSans-6e" d="M 3513 2113 
L 3513 0 
L 2938 0 
L 2938 2094 
Q 2938 2591 2744 2837 
Q 2550 3084 2163 3084 
Q 1697 3084 1428 2787 
Q 1159 2491 1159 1978 
L 1159 0 
L 581 0 
L 581 3500 
L 1159 3500 
L 1159 2956 
Q 1366 3272 1645 3428 
Q 1925 3584 2291 3584 
Q 2894 3584 3203 3211 
Q 3513 2838 3513 2113 
z
" transform="scale(0.015625)"/>
      <path id="DejaVuSans-78" d="M 3513 3500 
L 2247 1797 
L 3578 0 
L 2900 0 
L 1881 1375 
L 863 0 
L 184 0 
L 1544 1831 
L 300 3500 
L 978 3500 
L 1906 2253 
L 2834 3500 
L 3513 3500 
z
" transform="scale(0.015625)"/>
     </defs>
     <use xlink:href="#DejaVuSans-53"/>
     <use xlink:href="#DejaVuSans-70" x="63.476562"/>
     <use xlink:href="#DejaVuSans-65" x="126.953125"/>
     <use xlink:href="#DejaVuSans-63" x="188.476562"/>
     <use xlink:href="#DejaVuSans-74" x="243.457031"/>
     <use xlink:href="#DejaVuSans-72" x="282.666016"/>
     <use xlink:href="#DejaVuSans-75" x="323.779297"/>
     <use xlink:href="#DejaVuSans-6d" x="387.158203"/>
     <use xlink:href="#DejaVuSans-20" x="484.570312"/>
     <use xlink:href="#DejaVuSans-6f" x="516.357422"/>
     <use xlink:href="#DejaVuSans-66" x="577.539062"/>
     <use xlink:href="#DejaVuSans-20" x="612.744141"/>
     <use xlink:href="#DejaVuSans-63" x="644.53125"/>
     <use xlink:href="#DejaVuSans-6f" x="699.511719"/>
     <use xlink:href="#DejaVuSans-76" x="760.693359"/>
     <use xlink:href="#DejaVuSans-61" x="819.873047"/>
     <use xlink:href="#DejaVuSans-72" x="881.152344"/>
     <use xlink:href="#DejaVuSans-69" x="922.265625"/>
     <use xlink:href="#DejaVuSans-61" x="950.048828"/>
     <use xlink:href="#DejaVuSans-74" x="1011.328125"/>
     <use xlink:href="#DejaVuSans-69" x="1050.537109"/>
     <use xlink:href="#DejaVuSans-6f" x="1078.320312"/>
     <use xlink:href="#DejaVuSans-6e" x="1139.501953"/>
     <use xlink:href="#DejaVuSans-20" x="1202.880859"/>
     <use xlink:href="#DejaVuSans-6d" x="1234.667969"/>
     <use xlink:href="#DejaVuSans-61" x="1332.080078"/>
     <use xlink:href="#DejaVuSans-74" x="1393.359375"/>
     <use xlink:href="#DejaVuSans-72" x="1432.568359"/>
     <use xlink:href="#DejaVuSans-69" x="1473.681641"/>
     <use xlink:href="#DejaVuSans-78" x="1501.464844"/>
    </g>
   </g>
   <g id="legend_1">
    <g id="patch_7">
     <path d="M 572.296875 153.1125 
L 641 153.1125 
Q 643 153.1125 643 151.1125 
L 643 93.4 
Q 643 91.4 641 91.4 
L 572.296875 91.4 
Q 570.296875 91.4 570.296875 93.4 
L 570.296875 151.1125 
Q 570.296875 153.1125 572.296875 153.1125 
z
" style="fill: #ffffff; opacity: 0.8; stroke: #cccccc; stroke-linejoin: miter"/>
    </g>
    <g id="line2d_33">
     <path d="M 574.296875 99.498437 
L 584.296875 99.498437 
L 594.296875 99.498437 
" style="fill: none; stroke: #1f77b4; stroke-width: 1.5; stroke-linecap: square"/>
    </g>
    <g id="text_14">
     <!-- scratch -->
     <g transform="translate(602.296875 102.998437)scale(0.1 -0.1)">
      <defs>
       <path id="DejaVuSans-73" d="M 2834 3397 
L 2834 2853 
Q 2591 2978 2328 3040 
Q 2066 3103 1784 3103 
Q 1356 3103 1142 2972 
Q 928 2841 928 2578 
Q 928 2378 1081 2264 
Q 1234 2150 1697 2047 
L 1894 2003 
Q 2506 1872 2764 1633 
Q 3022 1394 3022 966 
Q 3022 478 2636 193 
Q 2250 -91 1575 -91 
Q 1294 -91 989 -36 
Q 684 19 347 128 
L 347 722 
Q 666 556 975 473 
Q 1284 391 1588 391 
Q 1994 391 2212 530 
Q 2431 669 2431 922 
Q 2431 1156 2273 1281 
Q 2116 1406 1581 1522 
L 1381 1569 
Q 847 1681 609 1914 
Q 372 2147 372 2553 
Q 372 3047 722 3315 
Q 1072 3584 1716 3584 
Q 2034 3584 2315 3537 
Q 2597 3491 2834 3397 
z
" transform="scale(0.015625)"/>
       <path id="DejaVuSans-68" d="M 3513 2113 
L 3513 0 
L 2938 0 
L 2938 2094 
Q 2938 2591 2744 2837 
Q 2550 3084 2163 3084 
Q 1697 3084 1428 2787 
Q 1159 2491 1159 1978 
L 1159 0 
L 581 0 
L 581 4863 
L 1159 4863 
L 1159 2956 
Q 1366 3272 1645 3428 
Q 1925 3584 2291 3584 
Q 2894 3584 3203 3211 
Q 3513 2838 3513 2113 
z
" transform="scale(0.015625)"/>
      </defs>
      <use xlink:href="#DejaVuSans-73"/>
      <use xlink:href="#DejaVuSans-63" x="52.099609"/>
      <use xlink:href="#DejaVuSans-72" x="107.080078"/>
      <use xlink:href="#DejaVuSans-61" x="148.193359"/>
      <use xlink:href="#DejaVuSans-74" x="209.472656"/>
      <use xlink:href="#DejaVuSans-63" x="248.681641"/>
      <use xlink:href="#DejaVuSans-68" x="303.662109"/>
     </g>
    </g>
    <g id="line2d_34">
     <path d="M 574.296875 114.176562 
L 584.296875 114.176562 
L 594.296875 114.176562 
" style="fill: none; stroke: #ff7f0e; stroke-width: 1.5; stroke-linecap: square"/>
    </g>
    <g id="text_15">
     <!-- nested -->
     <g transform="translate(602.296875 117.676562)scale(0.1 -0.1)">
      <defs>
       <path id="DejaVuSans-64" d="M 2906 2969 
L 2906 4863 
L 3481 4863 
L 3481 0 
L 2906 0 
L 2906 525 
Q 2725 213 2448 61 
Q 2172 -91 1784 -91 
Q 1150 -91 751 415 
Q 353 922 353 1747 
Q 353 2572 751 3078 
Q 1150 3584 1784 3584 
Q 2172 3584 2448 3432 
Q 2725 3281 2906 2969 
z
M 947 1747 
Q 947 1113 1208 752 
Q 1469 391 1925 391 
Q 2381 391 2643 752 
Q 2906 1113 2906 1747 
Q 2906 2381 2643 2742 
Q 2381 3103 1925 3103 
Q 1469 3103 1208 2742 
Q 947 2381 947 1747 
z
" transform="scale(0.015625)"/>
      </defs>
      <use xlink:href="#DejaVuSans-6e"/>
      <use xlink:href="#DejaVuSans-65" x="63.378906"/>
      <use xlink:href="#DejaVuSans-73" x="124.902344"/>
      <use xlink:href="#DejaVuSans-74" x="177.001953"/>
      <use xlink:href="#DejaVuSans-65" x="216.210938"/>
      <use xlink:href="#DejaVuSans-64" x="277.734375"/>
     </g>
    </g>
    <g id="line2d_35">
     <path d="M 574.296875 128.854687 
L 584.296875 128.854687 
L 594.296875 128.854687 
" style="fill: none; stroke: #2ca02c; stroke-width: 1.5; stroke-linecap: square"/>
    </g>
    <g id="text_16">
     <!-- flat -->
     <g transform="translate(602.296875 132.354687)scale(0.1 -0.1)">
      <defs>
       <path id="DejaVuSans-6c" d="M 603 4863 
L 1178 4863 
L 1178 0 
L 603 0 
L 603 4863 
z
" transform="scale(0.015625)"/>
      </defs>
      <use xlink:href="#DejaVuSans-66"/>
      <use xlink:href="#DejaVuSans-6c" x="35.205078"/>
      <use xlink:href="#DejaVuSans-61" x="62.988281"/>
      <use xlink:href="#DejaVuSans-74" x="124.267578"/>
     </g>
    </g>
    <g id="line2d_36">
     <path d="M 574.296875 143.532812 
L 584.296875 143.532812 
L 594.296875 143.532812 
" style="fill: none; stroke: #d62728; stroke-width: 1.5; stroke-linecap: square"/>
    </g>
    <g id="text_17">
     <!-- shuffle -->
     <g transform="translate(602.296875 147.032812)scale(0.1 -0.1)">
      <use xlink:href="#DejaVuSans-73"/>
      <use xlink:href="#DejaVuSans-68" x="52.099609"/>
      <use xlink:href="#DejaVuSans-75" x="115.478516"/>
      <use xlink:href="#DejaVuSans-66" x="178.857422"/>
      <use xlink:href="#DejaVuSans-66" x="214.0625"/>
      <use xlink:href="#DejaVuSans-6c" x="249.267578"/>
      <use xlink:href="#DejaVuSans-65" x="277.050781"/>
     </g>
    </g>
   </g>
  </g>
 </g>
 <defs>
  <clipPath id="p574779c614">
   <rect x="90" y="86.4" width="558" height="554.4"/>
  </clipPath>
 </defs>
</svg>
