<?xml version="1.0" encoding="utf-8" standalone="no"?>
<!DOCTYPE svg PUBLIC "-//W3C//DTD SVG 1.1//EN"
  "http://www.w3.org/Graphics/SVG/1.1/DTD/svg11.dtd">
<svg xmlns:xlink="http://www.w3.org/1999/xlink" width="720pt" height="720pt" viewBox="0 0 720 720" xmlns="http://www.w3.org/2000/svg" version="1.1">
 <metadata>
  <rdf:RDF xmlns:dc="http://purl.org/dc/elements/1.1/" xmlns:cc="http://creativecommons.org/ns#" xmlns:rdf="http://www.w3.org/1999/02/22-rdf-syntax-ns#">
   <cc:Work>
    <dc:type rdf:resource="http://purl.org/dc/dcmitype/StillImage"/>
    <dc:date>2024-05-21T20:53:05.731043</dc:date>
    <dc:format>image/svg+xml</dc:format>
    <dc:creator>
     <cc:Agent>
      <dc:title>Matplotlib v3.5.0, https://matplotlib.org/</dc:title>
     </cc:Agent>
    </dc:creator>
   </cc:Work>
  </rdf:RDF>
 </metadata>
 <defs>
  <style type="text/css">*{stroke-linejoin: round; stroke-linecap: butt}</style>
 </defs>
 <g id="figure_1">
  <g id="patch_1">
   <path d="M 0 720 
L 720 720 
L 720 0 
L 0 0 
z
" style="fill: #ffffff"/>
  </g>
  <g id="axes_1">
   <g id="patch_2">
    <path d="M 90 640.8 
L 648 640.8 
L 648 86.4 
L 90 86.4 
z
" style="fill: #ffffff"/>
   </g>
   <g id="matplotlib.axis_1">
    <g id="xtick_1">
     <g id="line2d_1">
      <defs>
       <path id="mccc266c75f" d="M 0 0 
L 0 10 
" style="stroke: #000000"/>
      </defs>
      <g>
       <use xlink:href="#mccc266c75f" x="115.363636" y="640.8" style="stroke: #000000"/>
      </g>
     </g>
     <g id="text_1">
      <!-- 0 -->
      <g transform="translate(109.637386 667.977188)scale(0.18 -0.18)">
       <defs>
        <path id="DejaVuSans-30" d="M 2034 4250 
Q 1547 4250 1301 3770 
Q 1056 3291 1056 2328 
Q 1056 1369 1301 889 
Q 1547 409 2034 409 
Q 2525 409 2770 889 
Q 3016 1369 3016 2328 
Q 3016 3291 2770 3770 
Q 2525 4250 2034 4250 
z
M 2034 4750 
Q 2819 4750 3233 4129 
Q 3647 3509 3647 2328 
Q 3647 1150 3233 529 
Q 2819 -91 2034 -91 
Q 1250 -91 836 529 
Q 422 1150 422 2328 
Q 422 3509 836 4129 
Q 1250 4750 2034 4750 
z
" transform="scale(0.015625)"/>
       </defs>
       <use xlink:href="#DejaVuSans-30"/>
      </g>
     </g>
    </g>
    <g id="xtick_2">
     <g id="line2d_2">
      <g>
       <use xlink:href="#mccc266c75f" x="179.091366" y="640.8" style="stroke: #000000"/>
      </g>
     </g>
     <g id="text_2">
      <!-- 25 -->
      <g transform="translate(167.638866 667.977188)scale(0.18 -0.18)">
       <defs>
        <path id="DejaVuSans-32" d="M 1228 531 
L 3431 531 
L 3431 0 
L 469 0 
L 469 531 
Q 828 903 1448 1529 
Q 2069 2156 2228 2338 
Q 2531 2678 2651 2914 
Q 2772 3150 2772 3378 
Q 2772 3750 2511 3984 
Q 2250 4219 1831 4219 
Q 1534 4219 1204 4116 
Q 875 4013 500 3803 
L 500 4441 
Q 881 4594 1212 4672 
Q 1544 4750 1819 4750 
Q 2544 4750 2975 4387 
Q 3406 4025 3406 3419 
Q 3406 3131 3298 2873 
Q 3191 2616 2906 2266 
Q 2828 2175 2409 1742 
Q 1991 1309 1228 531 
z
" transform="scale(0.015625)"/>
        <path id="DejaVuSans-35" d="M 691 4666 
L 3169 4666 
L 3169 4134 
L 1269 4134 
L 1269 2991 
Q 1406 3038 1543 3061 
Q 1681 3084 1819 3084 
Q 2600 3084 3056 2656 
Q 3513 2228 3513 1497 
Q 3513 744 3044 326 
Q 2575 -91 1722 -91 
Q 1428 -91 1123 -41 
Q 819 9 494 109 
L 494 744 
Q 775 591 1075 516 
Q 1375 441 1709 441 
Q 2250 441 2565 725 
Q 2881 1009 2881 1497 
Q 2881 1984 2565 2268 
Q 2250 2553 1709 2553 
Q 1456 2553 1204 2497 
Q 953 2441 691 2322 
L 691 4666 
z
" transform="scale(0.015625)"/>
       </defs>
       <use xlink:href="#DejaVuSans-32"/>
       <use xlink:href="#DejaVuSans-35" x="63.623047"/>
      </g>
     </g>
    </g>
    <g id="xtick_3">
     <g id="line2d_3">
      <g>
       <use xlink:href="#mccc266c75f" x="242.819095" y="640.8" style="stroke: #000000"/>
      </g>
     </g>
     <g id="text_3">
      <!-- 50 -->
      <g transform="translate(231.366595 667.977188)scale(0.18 -0.18)">
       <use xlink:href="#DejaVuSans-35"/>
       <use xlink:href="#DejaVuSans-30" x="63.623047"/>
      </g>
     </g>
    </g>
    <g id="xtick_4">
     <g id="line2d_4">
      <g>
       <use xlink:href="#mccc266c75f" x="306.546825" y="640.8" style="stroke: #000000"/>
      </g>
     </g>
     <g id="text_4">
      <!-- 75 -->
      <g transform="translate(295.094325 667.977188)scale(0.18 -0.18)">
       <defs>
        <path id="DejaVuSans-37" d="M 525 4666 
L 3525 4666 
L 3525 4397 
L 1831 0 
L 1172 0 
L 2766 4134 
L 525 4134 
L 525 4666 
z
" transform="scale(0.015625)"/>
       </defs>
       <use xlink:href="#DejaVuSans-37"/>
       <use xlink:href="#DejaVuSans-35" x="63.623047"/>
      </g>
     </g>
    </g>
    <g id="xtick_5">
     <g id="line2d_5">
      <g>
       <use xlink:href="#mccc266c75f" x="370.274555" y="640.8" style="stroke: #000000"/>
      </g>
     </g>
     <g id="text_5">
      <!-- 100 -->
      <g transform="translate(353.095805 667.977188)scale(0.18 -0.18)">
       <defs>
        <path id="DejaVuSans-31" d="M 794 531 
L 1825 531 
L 1825 4091 
L 703 3866 
L 703 4441 
L 1819 4666 
L 2450 4666 
L 2450 531 
L 3481 531 
L 3481 0 
L 794 0 
L 794 531 
z
" transform="scale(0.015625)"/>
       </defs>
       <use xlink:href="#DejaVuSans-31"/>
       <use xlink:href="#DejaVuSans-30" x="63.623047"/>
       <use xlink:href="#DejaVuSans-30" x="127.246094"/>
      </g>
     </g>
    </g>
    <g id="xtick_6">
     <g id="line2d_6">
      <g>
       <use xlink:href="#mccc266c75f" x="434.002284" y="640.8" style="stroke: #000000"/>
      </g>
     </g>
     <g id="text_6">
      <!-- 125 -->
      <g transform="translate(416.823534 667.977188)scale(0.18 -0.18)">
       <use xlink:href="#DejaVuSans-31"/>
       <use xlink:href="#DejaVuSans-32" x="63.623047"/>
       <use xlink:href="#DejaVuSans-35" x="127.246094"/>
      </g>
     </g>
    </g>
    <g id="xtick_7">
     <g id="line2d_7">
      <g>
       <use xlink:href="#mccc266c75f" x="497.730014" y="640.8" style="stroke: #000000"/>
      </g>
     </g>
     <g id="text_7">
      <!-- 150 -->
      <g transform="translate(480.551264 667.977188)scale(0.18 -0.18)">
       <use xlink:href="#DejaVuSans-31"/>
       <use xlink:href="#DejaVuSans-35" x="63.623047"/>
       <use xlink:href="#DejaVuSans-30" x="127.246094"/>
      </g>
     </g>
    </g>
    <g id="xtick_8">
     <g id="line2d_8">
      <g>
       <use xlink:href="#mccc266c75f" x="561.457743" y="640.8" style="stroke: #000000"/>
      </g>
     </g>
     <g id="text_8">
      <!-- 175 -->
      <g transform="translate(544.278993 667.977188)scale(0.18 -0.18)">
       <use xlink:href="#DejaVuSans-31"/>
       <use xlink:href="#DejaVuSans-37" x="63.623047"/>
       <use xlink:href="#DejaVuSans-35" x="127.246094"/>
      </g>
     </g>
    </g>
    <g id="xtick_9">
     <g id="line2d_9">
      <g>
       <use xlink:href="#mccc266c75f" x="625.185473" y="640.8" style="stroke: #000000"/>
      </g>
     </g>
     <g id="text_9">
      <!-- 200 -->
      <g transform="translate(608.006723 667.977188)scale(0.18 -0.18)">
       <use xlink:href="#DejaVuSans-32"/>
       <use xlink:href="#DejaVuSans-30" x="63.623047"/>
       <use xlink:href="#DejaVuSans-30" x="127.246094"/>
      </g>
     </g>
    </g>
   </g>
   <g id="matplotlib.axis_2">
    <g id="ytick_1">
     <g id="line2d_10">
      <defs>
       <path id="md9af492745" d="M 0 0 
L -10 0 
" style="stroke: #000000"/>
      </defs>
      <g>
       <use xlink:href="#md9af492745" x="90" y="450.447369" style="stroke: #000000"/>
      </g>
     </g>
     <g id="text_10">
      <!-- $\mathdefault{10^{-1}}$ -->
      <g transform="translate(34.2 457.285962)scale(0.18 -0.18)">
       <defs>
        <path id="DejaVuSans-2212" d="M 678 2272 
L 4684 2272 
L 4684 1741 
L 678 1741 
L 678 2272 
z
" transform="scale(0.015625)"/>
       </defs>
       <use xlink:href="#DejaVuSans-31" transform="translate(0 0.684375)"/>
       <use xlink:href="#DejaVuSans-30" transform="translate(63.623047 0.684375)"/>
       <use xlink:href="#DejaVuSans-2212" transform="translate(128.203125 38.965625)scale(0.7)"/>
       <use xlink:href="#DejaVuSans-31" transform="translate(186.855469 38.965625)scale(0.7)"/>
      </g>
     </g>
    </g>
    <g id="ytick_2">
     <g id="line2d_11">
      <g>
       <use xlink:href="#md9af492745" x="90" y="86.4" style="stroke: #000000"/>
      </g>
     </g>
     <g id="text_11">
      <!-- $\mathdefault{10^{0}}$ -->
      <g transform="translate(44.82 93.238594)scale(0.18 -0.18)">
       <use xlink:href="#DejaVuSans-31" transform="translate(0 0.765625)"/>
       <use xlink:href="#DejaVuSans-30" transform="translate(63.623047 0.765625)"/>
       <use xlink:href="#DejaVuSans-30" transform="translate(128.203125 39.046875)scale(0.7)"/>
      </g>
     </g>
    </g>
    <g id="ytick_3">
     <g id="line2d_12">
      <defs>
       <path id="m20b07cfa9f" d="M 0 0 
L -5 0 
" style="stroke: #000000"/>
      </defs>
      <g>
       <use xlink:href="#m20b07cfa9f" x="90" y="640.8" style="stroke: #000000"/>
      </g>
     </g>
    </g>
    <g id="ytick_4">
     <g id="line2d_13">
      <g>
       <use xlink:href="#m20b07cfa9f" x="90" y="595.316382" style="stroke: #000000"/>
      </g>
     </g>
    </g>
    <g id="ytick_5">
     <g id="line2d_14">
      <g>
       <use xlink:href="#m20b07cfa9f" x="90" y="560.036546" style="stroke: #000000"/>
      </g>
     </g>
    </g>
    <g id="ytick_6">
     <g id="line2d_15">
      <g>
       <use xlink:href="#m20b07cfa9f" x="90" y="531.210822" style="stroke: #000000"/>
      </g>
     </g>
    </g>
    <g id="ytick_7">
     <g id="line2d_16">
      <g>
       <use xlink:href="#m20b07cfa9f" x="90" y="506.83902" style="stroke: #000000"/>
      </g>
     </g>
    </g>
    <g id="ytick_8">
     <g id="line2d_17">
      <g>
       <use xlink:href="#m20b07cfa9f" x="90" y="485.727204" style="stroke: #000000"/>
      </g>
     </g>
    </g>
    <g id="ytick_9">
     <g id="line2d_18">
      <g>
       <use xlink:href="#m20b07cfa9f" x="90" y="467.105263" style="stroke: #000000"/>
      </g>
     </g>
    </g>
    <g id="ytick_10">
     <g id="line2d_19">
      <g>
       <use xlink:href="#m20b07cfa9f" x="90" y="340.858191" style="stroke: #000000"/>
      </g>
     </g>
    </g>
    <g id="ytick_11">
     <g id="line2d_20">
      <g>
       <use xlink:href="#m20b07cfa9f" x="90" y="276.752631" style="stroke: #000000"/>
      </g>
     </g>
    </g>
    <g id="ytick_12">
     <g id="line2d_21">
      <g>
       <use xlink:href="#m20b07cfa9f" x="90" y="231.269013" style="stroke: #000000"/>
      </g>
     </g>
    </g>
    <g id="ytick_13">
     <g id="line2d_22">
      <g>
       <use xlink:href="#m20b07cfa9f" x="90" y="195.989178" style="stroke: #000000"/>
      </g>
     </g>
    </g>
    <g id="ytick_14">
     <g id="line2d_23">
      <g>
       <use xlink:href="#m20b07cfa9f" x="90" y="167.163454" style="stroke: #000000"/>
      </g>
     </g>
    </g>
    <g id="ytick_15">
     <g id="line2d_24">
      <g>
       <use xlink:href="#m20b07cfa9f" x="90" y="142.791651" style="stroke: #000000"/>
      </g>
     </g>
    </g>
    <g id="ytick_16">
     <g id="line2d_25">
      <g>
       <use xlink:href="#m20b07cfa9f" x="90" y="121.679835" style="stroke: #000000"/>
      </g>
     </g>
    </g>
    <g id="ytick_17">
     <g id="line2d_26">
      <g>
       <use xlink:href="#m20b07cfa9f" x="90" y="103.057894" style="stroke: #000000"/>
      </g>
     </g>
    </g>
   </g>
   <g id="line2d_27">
    <path d="M 115.363636 86.4 
L 117.912746 122.072772 
L 120.461855 124.871944 
L 123.010964 146.983534 
L 125.560073 149.313848 
L 128.109182 158.19128 
L 130.658291 162.988117 
L 133.207401 169.53937 
L 135.75651 171.383598 
L 138.305619 172.970884 
L 140.854728 177.253606 
L 143.403837 179.748719 
L 145.952947 181.535005 
L 148.502056 184.583197 
L 151.051165 186.573675 
L 153.600274 187.761219 
L 156.149383 188.771509 
L 158.698492 189.476515 
L 163.796711 192.814155 
L 166.34582 194.263982 
L 168.894929 195.555002 
L 171.444038 198.800602 
L 176.542257 200.827332 
L 179.091366 202.246587 
L 181.640475 202.498823 
L 184.189584 204.291055 
L 186.738693 205.234022 
L 189.287803 206.454418 
L 191.836912 207.458276 
L 194.386021 207.858366 
L 196.93513 208.549121 
L 199.484239 210.182317 
L 202.033349 211.039507 
L 204.582458 213.740713 
L 207.131567 215.40824 
L 209.680676 216.446728 
L 212.229785 218.730054 
L 219.877113 219.769766 
L 222.426222 220.637762 
L 224.975331 222.520245 
L 227.52444 223.802395 
L 230.07355 225.729426 
L 232.622659 226.336932 
L 235.171768 228.350206 
L 237.720877 229.217803 
L 240.269986 230.562411 
L 242.819095 232.105478 
L 245.368205 232.571192 
L 247.917314 234.115855 
L 250.466423 235.268658 
L 253.015532 237.709797 
L 255.564641 238.018565 
L 258.113751 238.75172 
L 260.66286 239.207222 
L 263.211969 240.475938 
L 265.761078 241.585217 
L 268.310187 242.335076 
L 270.859296 242.901523 
L 273.408406 243.681606 
L 275.957515 244.616345 
L 278.506624 245.949629 
L 283.604842 247.421094 
L 286.153952 248.807021 
L 288.703061 249.325818 
L 291.25217 249.608866 
L 293.801279 250.443973 
L 296.350388 250.866446 
L 298.899497 251.543494 
L 303.997716 252.547099 
L 306.546825 253.424309 
L 311.645043 254.21613 
L 314.194153 254.969481 
L 316.743262 255.089446 
L 319.292371 256.304281 
L 321.84148 256.920342 
L 324.390589 257.076117 
L 326.939698 257.544781 
L 329.488808 257.72593 
L 337.136135 259.216839 
L 339.685244 259.937976 
L 342.234354 260.506118 
L 352.43079 261.994701 
L 360.078118 263.010296 
L 362.627227 263.065755 
L 365.176336 263.392207 
L 367.725445 264.022502 
L 370.274555 264.175675 
L 372.823664 264.502786 
L 375.372773 265.149676 
L 377.921882 266.392348 
L 383.020101 266.691553 
L 390.667428 267.853085 
L 393.216537 268.306018 
L 395.765646 268.380764 
L 398.314756 268.788879 
L 403.412974 269.365886 
L 405.962083 269.744473 
L 408.511192 270.291886 
L 411.060302 270.35809 
L 413.609411 270.653688 
L 416.15852 271.301347 
L 418.707629 271.437121 
L 421.256738 271.903774 
L 423.805847 271.930447 
L 428.904066 272.622764 
L 431.453175 272.738958 
L 434.002284 273.002154 
L 436.551393 273.688545 
L 439.100503 273.867156 
L 441.649612 274.506849 
L 444.198721 274.772107 
L 446.74783 275.346485 
L 456.944267 276.074818 
L 459.493376 276.436932 
L 462.042485 276.618033 
L 464.591594 277.000081 
L 467.140704 277.698796 
L 472.238922 277.987798 
L 479.886249 278.697691 
L 484.984468 279.557801 
L 490.082686 280.190132 
L 495.180905 280.899203 
L 502.828232 281.664211 
L 505.377341 281.752033 
L 507.92645 282.22496 
L 515.573778 282.920746 
L 518.122887 283.033912 
L 520.671996 283.385492 
L 523.221106 283.505514 
L 530.868433 284.259403 
L 533.417542 284.361863 
L 535.966651 284.856411 
L 538.515761 285.191212 
L 541.06487 285.405622 
L 543.613979 285.814457 
L 548.712197 286.137078 
L 551.261307 286.602412 
L 553.810416 286.860866 
L 556.359525 286.931588 
L 558.908634 287.199104 
L 564.006852 287.932451 
L 571.65418 288.687795 
L 574.203289 289.162018 
L 579.301508 289.547364 
L 586.948835 290.610766 
L 589.497944 290.677045 
L 597.145272 291.64464 
L 599.694381 291.832185 
L 602.24349 291.900119 
L 607.341709 292.912702 
L 614.989036 293.887905 
L 620.087254 294.077413 
L 622.636364 294.650293 
L 622.636364 294.650293 
" clip-path="url(#pc8c0e46936)" style="fill: none; stroke: #1f77b4; stroke-width: 1.5; stroke-linecap: square"/>
   </g>
   <g id="line2d_28">
    <path d="M 115.363636 86.4 
L 117.912746 308.188766 
L 120.461855 323.94606 
L 123.010964 338.318148 
L 125.560073 348.887824 
L 128.109182 356.658078 
L 130.658291 367.348268 
L 133.207401 375.44234 
L 135.75651 381.934239 
L 138.305619 383.957561 
L 140.854728 390.803668 
L 143.403837 396.774608 
L 145.952947 404.374117 
L 148.502056 406.492682 
L 151.051165 411.484147 
L 153.600274 413.541866 
L 156.149383 415.453859 
L 158.698492 418.612563 
L 161.247602 420.116408 
L 163.796711 423.740611 
L 166.34582 424.921809 
L 168.894929 427.854186 
L 171.444038 433.782074 
L 173.993148 436.23311 
L 176.542257 438.305015 
L 179.091366 439.382281 
L 181.640475 441.372752 
L 184.189584 442.242601 
L 186.738693 444.48488 
L 189.287803 447.674928 
L 191.836912 449.165486 
L 194.386021 450.227417 
L 196.93513 454.250329 
L 199.484239 454.727612 
L 202.033349 455.410102 
L 204.582458 457.120486 
L 207.131567 458.565131 
L 209.680676 463.671856 
L 212.229785 464.576472 
L 214.778894 465.693725 
L 217.328004 467.694813 
L 219.877113 468.119879 
L 222.426222 469.92496 
L 224.975331 472.253744 
L 227.52444 474.087198 
L 230.07355 476.503048 
L 232.622659 476.697281 
L 235.171768 478.326244 
L 237.720877 480.7984 
L 240.269986 484.52121 
L 242.819095 485.57931 
L 245.368205 487.019905 
L 247.917314 488.944076 
L 250.466423 490.326399 
L 253.015532 492.458095 
L 255.564641 492.923138 
L 258.113751 494.055986 
L 260.66286 496.435041 
L 263.211969 497.015957 
L 265.761078 497.452291 
L 268.310187 498.368412 
L 270.859296 499.775739 
L 273.408406 501.915908 
L 275.957515 503.301463 
L 278.506624 504.37646 
L 281.055733 506.408823 
L 286.153952 508.322417 
L 288.703061 509.615332 
L 291.25217 511.91665 
L 293.801279 512.465594 
L 296.350388 513.132089 
L 298.899497 514.758974 
L 301.448607 515.751929 
L 303.997716 517.201136 
L 306.546825 518.483881 
L 309.095934 519.289407 
L 311.645043 520.266962 
L 314.194153 520.547411 
L 316.743262 522.581074 
L 319.292371 524.306823 
L 321.84148 524.816705 
L 324.390589 524.931835 
L 326.939698 525.870997 
L 329.488808 527.327865 
L 332.037917 529.037817 
L 334.587026 529.344416 
L 337.136135 530.590481 
L 339.685244 531.482669 
L 342.234354 531.672653 
L 344.783463 533.481014 
L 349.881681 534.53313 
L 352.43079 536.476256 
L 354.979899 537.26473 
L 357.529009 537.797246 
L 360.078118 538.576771 
L 362.627227 539.09002 
L 365.176336 540.888073 
L 367.725445 541.9195 
L 370.274555 542.422899 
L 375.372773 543.616382 
L 377.921882 544.547087 
L 380.470991 545.050921 
L 383.020101 545.677293 
L 385.56921 546.62399 
L 388.118319 547.216301 
L 390.667428 548.461498 
L 393.216537 549.272956 
L 395.765646 549.611858 
L 398.314756 550.463424 
L 403.412974 551.390039 
L 405.962083 552.51871 
L 408.511192 554.090201 
L 411.060302 554.880469 
L 413.609411 556.079858 
L 416.15852 556.742189 
L 418.707629 557.018781 
L 421.256738 558.282182 
L 423.805847 558.826236 
L 426.354957 558.9686 
L 428.904066 559.604292 
L 431.453175 560.961094 
L 436.551393 561.944153 
L 444.198721 564.664938 
L 446.74783 564.88941 
L 449.296939 565.458698 
L 451.846048 566.259282 
L 454.395158 567.888967 
L 459.493376 568.885018 
L 462.042485 569.801179 
L 464.591594 570.280492 
L 469.689813 570.644445 
L 472.238922 572.860774 
L 474.788031 573.075193 
L 477.33714 574.427799 
L 484.984468 575.687581 
L 487.533577 576.374914 
L 492.631795 578.329763 
L 495.180905 578.752257 
L 497.730014 579.891805 
L 500.279123 580.576251 
L 502.828232 581.608966 
L 505.377341 582.282312 
L 507.92645 583.212203 
L 510.47556 583.343659 
L 513.024669 584.004105 
L 515.573778 584.517721 
L 518.122887 585.248272 
L 520.671996 586.110034 
L 523.221106 586.371914 
L 525.770215 587.205677 
L 528.319324 588.576237 
L 530.868433 589.51566 
L 533.417542 589.806495 
L 535.966651 590.668155 
L 538.515761 591.912154 
L 541.06487 592.339597 
L 543.613979 593.038072 
L 546.163088 593.612864 
L 548.712197 593.830919 
L 551.261307 594.575198 
L 556.359525 595.530522 
L 558.908634 596.044096 
L 564.006852 597.422833 
L 566.555962 598.171841 
L 569.105071 598.565851 
L 571.65418 599.080997 
L 579.301508 602.137691 
L 581.850617 603.882425 
L 584.399726 603.979016 
L 589.497944 604.755814 
L 592.047053 605.249772 
L 594.596163 606.084325 
L 597.145272 607.228101 
L 599.694381 607.561914 
L 602.24349 608.457493 
L 604.792599 609.173882 
L 607.341709 609.379836 
L 609.890818 609.734421 
L 614.989036 611.050257 
L 617.538145 611.801821 
L 620.087254 612.156104 
L 622.636364 613.264743 
L 622.636364 613.264743 
" clip-path="url(#pc8c0e46936)" style="fill: none; stroke: #ff7f0e; stroke-width: 1.5; stroke-linecap: square"/>
   </g>
   <g id="line2d_29">
    <path d="M 115.363636 86.4 
L 117.912746 234.561784 
L 120.461855 266.364284 
L 123.010964 279.449124 
L 125.560073 287.501701 
L 128.109182 291.811245 
L 133.207401 318.387619 
L 135.75651 325.892292 
L 138.305619 331.543853 
L 143.403837 338.084778 
L 145.952947 340.686534 
L 148.502056 348.106942 
L 151.051165 350.241491 
L 153.600274 352.140121 
L 156.149383 359.98967 
L 158.698492 360.915305 
L 161.247602 363.271381 
L 163.796711 366.328738 
L 168.894929 374.348166 
L 171.444038 377.064988 
L 173.993148 378.463745 
L 176.542257 382.133558 
L 179.091366 383.660053 
L 181.640475 388.947742 
L 184.189584 391.690192 
L 186.738693 392.014368 
L 189.287803 397.172014 
L 191.836912 400.361481 
L 194.386021 402.157804 
L 196.93513 402.769629 
L 199.484239 406.495876 
L 202.033349 407.924279 
L 204.582458 408.690162 
L 207.131567 410.754635 
L 209.680676 417.390423 
L 212.229785 418.543743 
L 214.778894 420.544728 
L 217.328004 421.683523 
L 219.877113 423.376188 
L 222.426222 424.845489 
L 224.975331 429.758268 
L 227.52444 430.038641 
L 230.07355 431.491901 
L 232.622659 434.409476 
L 235.171768 434.869052 
L 240.269986 437.293973 
L 242.819095 440.549382 
L 250.466423 444.00275 
L 253.015532 447.767751 
L 255.564641 448.015017 
L 260.66286 451.242237 
L 263.211969 453.591009 
L 265.761078 456.188615 
L 268.310187 457.581286 
L 270.859296 459.227027 
L 273.408406 461.608643 
L 275.957515 463.798469 
L 278.506624 465.073266 
L 281.055733 466.622792 
L 283.604842 467.854829 
L 286.153952 469.238003 
L 288.703061 470.827904 
L 291.25217 471.831228 
L 293.801279 474.540829 
L 296.350388 475.340759 
L 298.899497 475.811684 
L 303.997716 477.844644 
L 306.546825 479.502675 
L 311.645043 482.180431 
L 314.194153 482.534973 
L 316.743262 484.972068 
L 319.292371 485.772669 
L 321.84148 486.93059 
L 324.390589 487.755752 
L 326.939698 488.907774 
L 332.037917 489.624407 
L 334.587026 491.157301 
L 337.136135 492.830581 
L 339.685244 493.174447 
L 342.234354 495.182627 
L 344.783463 495.392016 
L 347.332572 495.825282 
L 349.881681 497.105792 
L 352.43079 499.411126 
L 354.979899 499.724846 
L 357.529009 500.79188 
L 362.627227 501.551166 
L 365.176336 502.288852 
L 367.725445 504.160378 
L 370.274555 504.351957 
L 372.823664 505.352138 
L 375.372773 506.070082 
L 377.921882 507.394867 
L 380.470991 507.508931 
L 383.020101 508.629427 
L 385.56921 509.503555 
L 388.118319 509.714095 
L 390.667428 510.405622 
L 393.216537 512.02613 
L 395.765646 512.216466 
L 398.314756 512.583133 
L 400.863865 513.69946 
L 403.412974 513.951783 
L 405.962083 514.999226 
L 408.511192 515.484828 
L 413.609411 517.726131 
L 416.15852 518.223865 
L 418.707629 519.200692 
L 423.805847 519.978103 
L 426.354957 520.139672 
L 428.904066 521.008651 
L 431.453175 521.670234 
L 434.002284 522.992184 
L 436.551393 524.022558 
L 439.100503 524.651992 
L 441.649612 525.413673 
L 444.198721 526.702935 
L 449.296939 527.847724 
L 454.395158 529.146267 
L 456.944267 529.264673 
L 459.493376 530.448355 
L 462.042485 531.421183 
L 464.591594 531.767519 
L 467.140704 532.607604 
L 469.689813 532.684791 
L 472.238922 533.770738 
L 474.788031 533.907217 
L 477.33714 534.602968 
L 482.435359 536.345036 
L 484.984468 537.188599 
L 487.533577 537.263792 
L 490.082686 537.976022 
L 492.631795 539.08484 
L 495.180905 539.444747 
L 497.730014 539.946405 
L 500.279123 541.293467 
L 502.828232 542.357463 
L 505.377341 542.586794 
L 510.47556 544.098104 
L 513.024669 544.550163 
L 515.573778 545.471098 
L 520.671996 546.82723 
L 523.221106 547.014328 
L 525.770215 547.835471 
L 528.319324 548.88882 
L 530.868433 549.423579 
L 533.417542 549.729239 
L 535.966651 550.756796 
L 538.515761 551.544468 
L 541.06487 551.93381 
L 543.613979 552.43981 
L 546.163088 552.603427 
L 548.712197 553.999377 
L 553.810416 555.502295 
L 558.908634 556.101469 
L 561.457743 556.615358 
L 566.555962 558.12947 
L 571.65418 559.924406 
L 576.752398 560.255078 
L 579.301508 561.464054 
L 581.850617 561.98163 
L 584.399726 562.655792 
L 586.948835 563.082801 
L 589.497944 563.659542 
L 592.047053 563.726533 
L 599.694381 566.951063 
L 602.24349 567.087882 
L 604.792599 567.795975 
L 607.341709 568.734252 
L 609.890818 569.435798 
L 612.439927 569.774592 
L 614.989036 570.751695 
L 617.538145 570.998101 
L 622.636364 572.648507 
L 622.636364 572.648507 
" clip-path="url(#pc8c0e46936)" style="fill: none; stroke: #2ca02c; stroke-width: 1.5; stroke-linecap: square"/>
   </g>
   <g id="line2d_30">
    <path d="M 115.363636 86.4 
L 117.912746 275.472318 
L 120.461855 290.457495 
L 125.560073 322.023515 
L 128.109182 322.783598 
L 130.658291 337.447343 
L 133.207401 347.133658 
L 135.75651 353.414754 
L 138.305619 359.996278 
L 140.854728 362.654993 
L 143.403837 365.661184 
L 145.952947 371.214931 
L 148.502056 373.003643 
L 151.051165 374.296054 
L 153.600274 376.945832 
L 156.149383 379.813005 
L 158.698492 382.474316 
L 161.247602 384.02229 
L 163.796711 389.992472 
L 166.34582 391.447378 
L 168.894929 393.397981 
L 171.444038 397.630732 
L 173.993148 400.142827 
L 176.542257 400.892591 
L 179.091366 402.062447 
L 184.189584 406.222869 
L 186.738693 407.976192 
L 189.287803 408.835028 
L 191.836912 410.832148 
L 196.93513 412.701399 
L 199.484239 414.203998 
L 202.033349 415.28478 
L 204.582458 417.3959 
L 207.131567 418.116251 
L 209.680676 420.052305 
L 212.229785 421.114015 
L 214.778894 421.735529 
L 217.328004 422.986887 
L 219.877113 425.143091 
L 222.426222 425.642127 
L 224.975331 426.898547 
L 227.52444 428.461183 
L 230.07355 428.781091 
L 232.622659 430.876198 
L 235.171768 431.780885 
L 237.720877 432.42347 
L 240.269986 433.903164 
L 242.819095 435.244775 
L 247.917314 437.538762 
L 250.466423 438.173858 
L 253.015532 438.954474 
L 255.564641 439.309983 
L 258.113751 440.270254 
L 260.66286 440.668263 
L 263.211969 440.88356 
L 265.761078 442.057973 
L 268.310187 442.666055 
L 270.859296 444.180335 
L 273.408406 445.281486 
L 275.957515 445.355929 
L 278.506624 446.831152 
L 281.055733 447.72494 
L 283.604842 448.029053 
L 288.703061 448.955245 
L 291.25217 449.574775 
L 293.801279 450.057623 
L 296.350388 450.706165 
L 298.899497 452.079563 
L 301.448607 452.892023 
L 303.997716 453.335942 
L 306.546825 454.45303 
L 309.095934 455.017003 
L 311.645043 455.463545 
L 316.743262 456.002235 
L 319.292371 457.622772 
L 326.939698 459.016524 
L 332.037917 460.720488 
L 334.587026 461.091147 
L 337.136135 462.03964 
L 339.685244 462.471905 
L 342.234354 462.730457 
L 344.783463 464.012244 
L 347.332572 464.775503 
L 349.881681 465.024302 
L 352.43079 465.673685 
L 357.529009 466.393772 
L 360.078118 467.122194 
L 362.627227 467.25709 
L 367.725445 468.822731 
L 370.274555 469.976559 
L 372.823664 470.242056 
L 375.372773 470.83774 
L 377.921882 470.999401 
L 380.470991 472.213982 
L 383.020101 472.535206 
L 385.56921 473.082006 
L 390.667428 473.882413 
L 393.216537 474.372617 
L 395.765646 474.534683 
L 398.314756 475.703754 
L 400.863865 476.257316 
L 403.412974 476.453955 
L 405.962083 477.370791 
L 408.511192 477.767532 
L 411.060302 478.535056 
L 413.609411 478.687914 
L 416.15852 478.970551 
L 418.707629 480.124728 
L 423.805847 480.676915 
L 426.354957 481.753045 
L 428.904066 482.063577 
L 431.453175 482.741143 
L 434.002284 483.267487 
L 441.649612 483.846799 
L 444.198721 484.849795 
L 446.74783 485.170452 
L 449.296939 485.679507 
L 451.846048 485.78647 
L 454.395158 486.647382 
L 459.493376 487.596722 
L 462.042485 488.210229 
L 472.238922 490.123715 
L 477.33714 491.631764 
L 479.886249 491.801227 
L 482.435359 492.451719 
L 484.984468 492.602207 
L 490.082686 493.670494 
L 492.631795 494.806733 
L 497.730014 495.149818 
L 500.279123 495.416389 
L 502.828232 496.056303 
L 505.377341 496.409802 
L 507.92645 497.462996 
L 510.47556 497.560797 
L 513.024669 498.023482 
L 515.573778 498.269663 
L 523.221106 500.047732 
L 525.770215 500.28648 
L 528.319324 501.15721 
L 533.417542 501.762062 
L 535.966651 502.379771 
L 541.06487 503.106567 
L 543.613979 504.025508 
L 546.163088 504.450436 
L 548.712197 504.524514 
L 551.261307 505.353955 
L 553.810416 505.475531 
L 556.359525 506.01965 
L 561.457743 506.493832 
L 564.006852 507.087057 
L 566.555962 507.481049 
L 571.65418 509.216949 
L 574.203289 509.510777 
L 576.752398 509.533661 
L 579.301508 510.200347 
L 584.399726 511.059324 
L 586.948835 511.303985 
L 592.047053 512.07027 
L 594.596163 512.754907 
L 597.145272 513.311859 
L 599.694381 513.511544 
L 602.24349 514.065606 
L 604.792599 515.250297 
L 607.341709 515.966933 
L 609.890818 516.449083 
L 612.439927 516.702648 
L 614.989036 517.081389 
L 617.538145 517.707888 
L 620.087254 517.885269 
L 622.636364 518.439579 
L 622.636364 518.439579 
" clip-path="url(#pc8c0e46936)" style="fill: none; stroke: #d62728; stroke-width: 1.5; stroke-linecap: square"/>
   </g>
   <g id="patch_3">
    <path d="M 90 640.8 
L 90 86.4 
" style="fill: none; stroke: #000000; stroke-width: 0.8; stroke-linejoin: miter; stroke-linecap: square"/>
   </g>
   <g id="patch_4">
    <path d="M 648 640.8 
L 648 86.4 
" style="fill: none; stroke: #000000; stroke-width: 0.8; stroke-linejoin: miter; stroke-linecap: square"/>
   </g>
   <g id="patch_5">
    <path d="M 90 640.8 
L 648 640.8 
" style="fill: none; stroke: #000000; stroke-width: 0.8; stroke-linejoin: miter; stroke-linecap: square"/>
   </g>
   <g id="patch_6">
    <path d="M 90 86.4 
L 648 86.4 
" style="fill: none; stroke: #000000; stroke-width: 0.8; stroke-linejoin: miter; stroke-linecap: square"/>
   </g>
   <g id="legend_1">
    <g id="patch_7">
     <path d="M 511.734375 206.4825 
L 635.4 206.4825 
Q 639 206.4825 639 202.8825 
L 639 99 
Q 639 95.4 635.4 95.4 
L 511.734375 95.4 
Q 508.134375 95.4 508.134375 99 
L 508.134375 202.8825 
Q 508.134375 206.4825 511.734375 206.4825 
z
" style="fill: #ffffff; opacity: 0.8; stroke: #cccccc; stroke-linejoin: miter"/>
    </g>
    <g id="line2d_31">
     <path d="M 515.334375 109.977187 
L 533.334375 109.977187 
L 551.334375 109.977187 
" style="fill: none; stroke: #1f77b4; stroke-width: 1.5; stroke-linecap: square"/>
    </g>
    <g id="text_12">
     <!-- scratch -->
     <g transform="translate(565.734375 116.277187)scale(0.18 -0.18)">
      <defs>
       <path id="DejaVuSans-73" d="M 2834 3397 
L 2834 2853 
Q 2591 2978 2328 3040 
Q 2066 3103 1784 3103 
Q 1356 3103 1142 2972 
Q 928 2841 928 2578 
Q 928 2378 1081 2264 
Q 1234 2150 1697 2047 
L 1894 2003 
Q 2506 1872 2764 1633 
Q 3022 1394 3022 966 
Q 3022 478 2636 193 
Q 2250 -91 1575 -91 
Q 1294 -91 989 -36 
Q 684 19 347 128 
L 347 722 
Q 666 556 975 473 
Q 1284 391 1588 391 
Q 1994 391 2212 530 
Q 2431 669 2431 922 
Q 2431 1156 2273 1281 
Q 2116 1406 1581 1522 
L 1381 1569 
Q 847 1681 609 1914 
Q 372 2147 372 2553 
Q 372 3047 722 3315 
Q 1072 3584 1716 3584 
Q 2034 3584 2315 3537 
Q 2597 3491 2834 3397 
z
" transform="scale(0.015625)"/>
       <path id="DejaVuSans-63" d="M 3122 3366 
L 3122 2828 
Q 2878 2963 2633 3030 
Q 2388 3097 2138 3097 
Q 1578 3097 1268 2742 
Q 959 2388 959 1747 
Q 959 1106 1268 751 
Q 1578 397 2138 397 
Q 2388 397 2633 464 
Q 2878 531 3122 666 
L 3122 134 
Q 2881 22 2623 -34 
Q 2366 -91 2075 -91 
Q 1284 -91 818 406 
Q 353 903 353 1747 
Q 353 2603 823 3093 
Q 1294 3584 2113 3584 
Q 2378 3584 2631 3529 
Q 2884 3475 3122 3366 
z
" transform="scale(0.015625)"/>
       <path id="DejaVuSans-72" d="M 2631 2963 
Q 2534 3019 2420 3045 
Q 2306 3072 2169 3072 
Q 1681 3072 1420 2755 
Q 1159 2438 1159 1844 
L 1159 0 
L 581 0 
L 581 3500 
L 1159 3500 
L 1159 2956 
Q 1341 3275 1631 3429 
Q 1922 3584 2338 3584 
Q 2397 3584 2469 3576 
Q 2541 3569 2628 3553 
L 2631 2963 
z
" transform="scale(0.015625)"/>
       <path id="DejaVuSans-61" d="M 2194 1759 
Q 1497 1759 1228 1600 
Q 959 1441 959 1056 
Q 959 750 1161 570 
Q 1363 391 1709 391 
Q 2188 391 2477 730 
Q 2766 1069 2766 1631 
L 2766 1759 
L 2194 1759 
z
M 3341 1997 
L 3341 0 
L 2766 0 
L 2766 531 
Q 2569 213 2275 61 
Q 1981 -91 1556 -91 
Q 1019 -91 701 211 
Q 384 513 384 1019 
Q 384 1609 779 1909 
Q 1175 2209 1959 2209 
L 2766 2209 
L 2766 2266 
Q 2766 2663 2505 2880 
Q 2244 3097 1772 3097 
Q 1472 3097 1187 3025 
Q 903 2953 641 2809 
L 641 3341 
Q 956 3463 1253 3523 
Q 1550 3584 1831 3584 
Q 2591 3584 2966 3190 
Q 3341 2797 3341 1997 
z
" transform="scale(0.015625)"/>
       <path id="DejaVuSans-74" d="M 1172 4494 
L 1172 3500 
L 2356 3500 
L 2356 3053 
L 1172 3053 
L 1172 1153 
Q 1172 725 1289 603 
Q 1406 481 1766 481 
L 2356 481 
L 2356 0 
L 1766 0 
Q 1100 0 847 248 
Q 594 497 594 1153 
L 594 3053 
L 172 3053 
L 172 3500 
L 594 3500 
L 594 4494 
L 1172 4494 
z
" transform="scale(0.015625)"/>
       <path id="DejaVuSans-68" d="M 3513 2113 
L 3513 0 
L 2938 0 
L 2938 2094 
Q 2938 2591 2744 2837 
Q 2550 3084 2163 3084 
Q 1697 3084 1428 2787 
Q 1159 2491 1159 1978 
L 1159 0 
L 581 0 
L 581 4863 
L 1159 4863 
L 1159 2956 
Q 1366 3272 1645 3428 
Q 1925 3584 2291 3584 
Q 2894 3584 3203 3211 
Q 3513 2838 3513 2113 
z
" transform="scale(0.015625)"/>
      </defs>
      <use xlink:href="#DejaVuSans-73"/>
      <use xlink:href="#DejaVuSans-63" x="52.099609"/>
      <use xlink:href="#DejaVuSans-72" x="107.080078"/>
      <use xlink:href="#DejaVuSans-61" x="148.193359"/>
      <use xlink:href="#DejaVuSans-74" x="209.472656"/>
      <use xlink:href="#DejaVuSans-63" x="248.681641"/>
      <use xlink:href="#DejaVuSans-68" x="303.662109"/>
     </g>
    </g>
    <g id="line2d_32">
     <path d="M 515.334375 136.397812 
L 533.334375 136.397812 
L 551.334375 136.397812 
" style="fill: none; stroke: #ff7f0e; stroke-width: 1.5; stroke-linecap: square"/>
    </g>
    <g id="text_13">
     <!-- nested -->
     <g transform="translate(565.734375 142.697812)scale(0.18 -0.18)">
      <defs>
       <path id="DejaVuSans-6e" d="M 3513 2113 
L 3513 0 
L 2938 0 
L 2938 2094 
Q 2938 2591 2744 2837 
Q 2550 3084 2163 3084 
Q 1697 3084 1428 2787 
Q 1159 2491 1159 1978 
L 1159 0 
L 581 0 
L 581 3500 
L 1159 3500 
L 1159 2956 
Q 1366 3272 1645 3428 
Q 1925 3584 2291 3584 
Q 2894 3584 3203 3211 
Q 3513 2838 3513 2113 
z
" transform="scale(0.015625)"/>
       <path id="DejaVuSans-65" d="M 3597 1894 
L 3597 1613 
L 953 1613 
Q 991 1019 1311 708 
Q 1631 397 2203 397 
Q 2534 397 2845 478 
Q 3156 559 3463 722 
L 3463 178 
Q 3153 47 2828 -22 
Q 2503 -91 2169 -91 
Q 1331 -91 842 396 
Q 353 884 353 1716 
Q 353 2575 817 3079 
Q 1281 3584 2069 3584 
Q 2775 3584 3186 3129 
Q 3597 2675 3597 1894 
z
M 3022 2063 
Q 3016 2534 2758 2815 
Q 2500 3097 2075 3097 
Q 1594 3097 1305 2825 
Q 1016 2553 972 2059 
L 3022 2063 
z
" transform="scale(0.015625)"/>
       <path id="DejaVuSans-64" d="M 2906 2969 
L 2906 4863 
L 3481 4863 
L 3481 0 
L 2906 0 
L 2906 525 
Q 2725 213 2448 61 
Q 2172 -91 1784 -91 
Q 1150 -91 751 415 
Q 353 922 353 1747 
Q 353 2572 751 3078 
Q 1150 3584 1784 3584 
Q 2172 3584 2448 3432 
Q 2725 3281 2906 2969 
z
M 947 1747 
Q 947 1113 1208 752 
Q 1469 391 1925 391 
Q 2381 391 2643 752 
Q 2906 1113 2906 1747 
Q 2906 2381 2643 2742 
Q 2381 3103 1925 3103 
Q 1469 3103 1208 2742 
Q 947 2381 947 1747 
z
" transform="scale(0.015625)"/>
      </defs>
      <use xlink:href="#DejaVuSans-6e"/>
      <use xlink:href="#DejaVuSans-65" x="63.378906"/>
      <use xlink:href="#DejaVuSans-73" x="124.902344"/>
      <use xlink:href="#DejaVuSans-74" x="177.001953"/>
      <use xlink:href="#DejaVuSans-65" x="216.210938"/>
      <use xlink:href="#DejaVuSans-64" x="277.734375"/>
     </g>
    </g>
    <g id="line2d_33">
     <path d="M 515.334375 162.818437 
L 533.334375 162.818437 
L 551.334375 162.818437 
" style="fill: none; stroke: #2ca02c; stroke-width: 1.5; stroke-linecap: square"/>
    </g>
    <g id="text_14">
     <!-- flat -->
     <g transform="translate(565.734375 169.118437)scale(0.18 -0.18)">
      <defs>
       <path id="DejaVuSans-66" d="M 2375 4863 
L 2375 4384 
L 1825 4384 
Q 1516 4384 1395 4259 
Q 1275 4134 1275 3809 
L 1275 3500 
L 2222 3500 
L 2222 3053 
L 1275 3053 
L 1275 0 
L 697 0 
L 697 3053 
L 147 3053 
L 147 3500 
L 697 3500 
L 697 3744 
Q 697 4328 969 4595 
Q 1241 4863 1831 4863 
L 2375 4863 
z
" transform="scale(0.015625)"/>
       <path id="DejaVuSans-6c" d="M 603 4863 
L 1178 4863 
L 1178 0 
L 603 0 
L 603 4863 
z
" transform="scale(0.015625)"/>
      </defs>
      <use xlink:href="#DejaVuSans-66"/>
      <use xlink:href="#DejaVuSans-6c" x="35.205078"/>
      <use xlink:href="#DejaVuSans-61" x="62.988281"/>
      <use xlink:href="#DejaVuSans-74" x="124.267578"/>
     </g>
    </g>
    <g id="line2d_34">
     <path d="M 515.334375 189.239062 
L 533.334375 189.239062 
L 551.334375 189.239062 
" style="fill: none; stroke: #d62728; stroke-width: 1.5; stroke-linecap: square"/>
    </g>
    <g id="text_15">
     <!-- shuffle -->
     <g transform="translate(565.734375 195.539062)scale(0.18 -0.18)">
      <defs>
       <path id="DejaVuSans-75" d="M 544 1381 
L 544 3500 
L 1119 3500 
L 1119 1403 
Q 1119 906 1312 657 
Q 1506 409 1894 409 
Q 2359 409 2629 706 
Q 2900 1003 2900 1516 
L 2900 3500 
L 3475 3500 
L 3475 0 
L 2900 0 
L 2900 538 
Q 2691 219 2414 64 
Q 2138 -91 1772 -91 
Q 1169 -91 856 284 
Q 544 659 544 1381 
z
M 1991 3584 
L 1991 3584 
z
" transform="scale(0.015625)"/>
      </defs>
      <use xlink:href="#DejaVuSans-73"/>
      <use xlink:href="#DejaVuSans-68" x="52.099609"/>
      <use xlink:href="#DejaVuSans-75" x="115.478516"/>
      <use xlink:href="#DejaVuSans-66" x="178.857422"/>
      <use xlink:href="#DejaVuSans-66" x="214.0625"/>
      <use xlink:href="#DejaVuSans-6c" x="249.267578"/>
      <use xlink:href="#DejaVuSans-65" x="277.050781"/>
     </g>
    </g>
   </g>
  </g>
 </g>
 <defs>
  <clipPath id="pc8c0e46936">
   <rect x="90" y="86.4" width="558" height="554.4"/>
  </clipPath>
 </defs>
</svg>
